<?xml version="1.0" encoding="UTF-8"?>
<svg version="1.1" xmlns="http://www.w3.org/2000/svg" width="943" height="263">
<path d="M0 0 C311.19 0 622.38 0 943 0 C943 86.79 943 173.58 943 263 C631.81 263 320.62 263 0 263 C0 176.21 0 89.42 0 0 Z " fill="#000000" transform="translate(0,0)"/>
<path d="M0 0 C88.44 0 176.88 0 268 0 C268 72.27 268 144.54 268 219 C179.56 219 91.12 219 0 219 C0 146.73 0 74.46 0 0 Z " fill="#EED94E" transform="translate(647,24)"/>
<path d="M0 0 C7.36904576 5.4030753 12.36119542 13.49730426 14.1875 22.4375 C14.1875 23.7575 14.1875 25.0775 14.1875 26.4375 C7.2575 26.4375 0.3275 26.4375 -6.8125 26.4375 C-7.8025 23.7975 -8.7925 21.1575 -9.8125 18.4375 C-12.97987791 13.81484035 -15.26918303 11.5244249 -20.8125 10.4375 C-26.25771605 9.83732589 -30.10230736 10.37039781 -34.8125 13.4375 C-37.01372294 15.34522655 -37.7047355 16.63974339 -38.09375 19.51953125 C-38.23196471 22.99217592 -37.99365471 25.86815662 -36.9375 29.1875 C-31.24764649 35.21205078 -23.14585039 37.02382898 -15.35595703 38.99511719 C-4.34728168 41.79123701 5.74726377 45.71552476 12.1875 55.625 C16.51827092 63.00836292 16.47649197 72.9942267 14.5390625 81.17578125 C11.50416232 88.68521376 5.83824872 94.31039117 -1.53515625 97.59375 C-15.0497917 102.60088766 -31.19211252 103.84622849 -44.7578125 98.21484375 C-53.30512819 93.84802715 -59.22155449 88.79588383 -63.0859375 79.94140625 C-64.07476159 76.53368451 -64.37238917 72.95838667 -64.8125 69.4375 C-57.8825 69.4375 -50.9525 69.4375 -43.8125 69.4375 C-43.1525 70.984375 -42.4925 72.53125 -41.8125 74.125 C-39.17104347 79.45319518 -36.18457272 82.02119114 -30.8125 84.4375 C-25.0008581 86.37471397 -19.61048347 86.04885605 -13.9375 83.75 C-10.25399784 81.90503469 -8.18821378 80.47292709 -6.8125 76.4375 C-6.31113018 71.92517161 -6.41321768 69.45566991 -8.0625 65.25 C-14.16887794 59.00484074 -23.17796712 57.29244443 -31.375 55 C-43.86307116 51.46634453 -52.96023955 46.57677559 -59.75 35.1875 C-62.06870532 27.00383417 -61.80934215 18.06136972 -57.8125 10.4375 C-52.2454432 2.10954511 -44.21774042 -2.46460858 -34.671875 -5.05859375 C-23.00685365 -7.11431473 -10.31159758 -6.13826972 0 0 Z " fill="#020200" transform="translate(856.8125,83.5625)"/>
<path d="M0 0 C49.8325 0 49.8325 0 60 7 C66.06394703 13.29764884 67.3053804 18.56231646 67.31469727 27.23217773 C67.17957742 33.86584242 65.82911611 37.95635376 61.3515625 42.7734375 C58.13484386 45.76540723 55.53697194 47.725032 51 48 C51 48.66 51 49.32 51 50 C51.556875 50.20625 52.11375 50.4125 52.6875 50.625 C59.07782754 54.42465421 61.20323273 60.14451202 63 67 C63.81617584 71.64276696 64.30161412 76.31993338 64.81640625 81.00390625 C65.48481567 86.54325329 66.50516076 90.9964613 69 96 C64.71 96 60.42 96 56 96 C52.73616001 89.40903227 52.04283038 83.07889509 51.27148438 75.82617188 C50.37899533 68.5331105 48.81233136 62.93379418 43.6484375 57.546875 C37.80174606 55.06797799 31.90849831 55.32051218 25.625 55.25 C21.12875 55.1675 16.6325 55.085 12 55 C12 68.53 12 82.06 12 96 C8.04 96 4.08 96 0 96 C0 64.32 0 32.64 0 0 Z " fill="#F9F9F9" transform="translate(281,84)"/>
<path d="M0 0 C50.94763092 0 50.94763092 0 59.578125 8.56640625 C66.21140305 15.76319094 67.6034126 21.79497759 67.3359375 31.49609375 C66.50488729 40.16414076 63.30904203 45.43138243 56.90234375 51.2109375 C47.17009409 57.21009005 37.94144313 57.51692928 26.8125 57.25 C21.924375 57.1675 17.03625 57.085 12 57 C12 69.87 12 82.74 12 96 C8.04 96 4.08 96 0 96 C0 64.32 0 32.64 0 0 Z " fill="#FAFAFA" transform="translate(198,84)"/>
<path d="M0 0 C6.93 0 13.86 0 21 0 C21.04532812 9.60607476 21.08196046 19.21207755 21.10362434 28.8182354 C21.11402608 33.27958043 21.12811874 37.74084798 21.15087891 42.20214844 C21.1727368 46.51396564 21.18459573 50.82570869 21.18975449 55.13757706 C21.19342714 56.77606497 21.2005984 58.41454919 21.21146011 60.05300522 C21.3736674 85.55414117 21.3736674 85.55414117 12.46875 95.75390625 C3.06909395 104.5993373 -9.43816432 105.50205979 -21.73046875 105.26953125 C-30.86438154 104.86103063 -37.58007026 101.44402613 -44.125 95.14453125 C-46.86552796 92.01005239 -48.56629837 88.88921271 -50 85 C-50.4125 83.9275 -50.825 82.855 -51.25 81.75 C-52.3121972 76.43901399 -52.12164639 71.41326447 -52 66 C-45.4 66 -38.8 66 -32 66 C-31.731875 67.85625 -31.46375 69.7125 -31.1875 71.625 C-30.15865914 77.69801895 -29.13260452 82.07545446 -24.4375 86.3125 C-19.94160206 89.42504473 -16.3820872 89.61660573 -11 89 C-6.81045131 87.67023885 -4.42138796 85.79695369 -2.33171082 81.84483337 C-0.79146969 77.95512147 -0.55917232 74.19380791 -0.56762695 70.04516602 C-0.5574353 69.28336533 -0.54724365 68.52156464 -0.53674316 67.73667908 C-0.50677671 65.24234507 -0.49737259 62.7483961 -0.48828125 60.25390625 C-0.47142239 58.51511882 -0.45327052 56.77634348 -0.43388367 55.0375824 C-0.38650853 50.47893047 -0.35661859 45.92032761 -0.33044434 41.36151123 C-0.30057561 36.70249749 -0.25406703 32.04365259 -0.20898438 27.38476562 C-0.12309326 18.25657962 -0.05722448 9.12841078 0 0 Z " fill="#030301" transform="translate(745,80)"/>
<path d="M0 0 C2.96249417 1.67115056 5.00455587 3.55892736 7.1328125 6.203125 C7.8134375 6.925 8.4940625 7.646875 9.1953125 8.390625 C12.72230161 13.5104479 15.1328125 18.95908539 15.1328125 25.203125 C10.8428125 25.203125 6.5528125 25.203125 2.1328125 25.203125 C1.6996875 23.82125 1.2665625 22.439375 0.8203125 21.015625 C-0.78981288 16.24516051 -2.09602466 12.47472909 -6.3046875 9.453125 C-13.03795807 6.16860277 -21.32871925 6.00257327 -28.3671875 8.390625 C-31.4175694 10.60215188 -33.07777547 11.83077156 -34.8671875 15.203125 C-35.65565695 20.44976281 -36.2277267 26.22557872 -32.9296875 30.703125 C-27.67257064 34.99464896 -22.12732865 36.9324247 -15.6171875 38.640625 C-4.08027763 41.67835477 6.53754736 45.05349969 13.5703125 55.296875 C17.09702036 62.05639839 17.50164588 69.64254071 15.3203125 76.91015625 C11.5511503 85.4300333 5.23663225 91.33550618 -3.4296875 94.703125 C-14.63148911 97.89956266 -27.43433889 97.69331909 -37.8671875 92.203125 C-44.85748456 87.38932997 -50.37404488 81.45673924 -52.8671875 73.203125 C-52.8671875 71.223125 -52.8671875 69.243125 -52.8671875 67.203125 C-48.5771875 67.203125 -44.2871875 67.203125 -39.8671875 67.203125 C-39.3515625 68.729375 -38.8359375 70.255625 -38.3046875 71.828125 C-36.21522054 77.0778178 -33.58020963 80.14379484 -28.8671875 83.203125 C-28.29484375 83.57566406 -27.7225 83.94820313 -27.1328125 84.33203125 C-21.17474008 86.62280737 -12.09954686 86.32540759 -6.14453125 84.2578125 C-2.32511613 81.98758071 0.62045385 79.45663371 2.1328125 75.203125 C2.85282358 69.85316928 2.90356601 64.42154223 -0.25 59.7890625 C-6.33171933 53.82486432 -14.92210068 51.81066513 -22.9296875 49.765625 C-32.14579413 47.38693415 -40.57442668 44.27053246 -45.9921875 35.953125 C-49.32874325 29.86451963 -49.59854254 24.03464597 -48.8671875 17.203125 C-46.13622896 8.65710818 -41.53524809 4.01039255 -33.6796875 -0.046875 C-23.73338023 -4.83365799 -10.0805659 -4.37749345 0 0 Z " fill="#F8F8F8" transform="translate(494.8671875,85.796875)"/>
<path d="M0 0 C8.12517577 4.90035318 12.37385078 11.33136821 14.77734375 20.3984375 C15.1875 22.5625 15.1875 22.5625 15.1875 25.5625 C10.8975 25.5625 6.6075 25.5625 2.1875 25.5625 C1.775 24.015625 1.3625 22.46875 0.9375 20.875 C-0.35626159 16.65387924 -1.44210534 13.56852767 -4.8125 10.5625 C-11.28288786 7.21176343 -17.59528809 6.67026226 -24.8125 7.5625 C-28.57076423 8.7931992 -31.07434545 10.75291113 -33.75 13.6875 C-35.79357479 19.21717296 -35.69280171 24.44177316 -33.4375 29.875 C-27.84946638 35.59608204 -21.06046613 37.60012229 -13.4375 39.5 C-0.66236062 42.73894948 8.30148096 47.36659709 15.125 58.8125 C17.32403306 66.57379317 17.25463065 74.28182064 13.51171875 81.53125 C7.84476534 90.22392189 0.04379789 94.13217997 -9.8125 96.5625 C-21.77907137 97.55863621 -31.89512691 96.34782461 -41.7734375 89.296875 C-47.09384954 84.77146705 -50.58132941 79.13205786 -52.8125 72.5625 C-52.8125 70.9125 -52.8125 69.2625 -52.8125 67.5625 C-48.5225 67.5625 -44.2325 67.5625 -39.8125 67.5625 C-39.255625 68.92375 -38.69875 70.285 -38.125 71.6875 C-35.48867297 77.52967419 -33.15014523 81.31019006 -27.3125 84.4375 C-20.27023708 86.6648824 -11.92352911 86.98130548 -5.1875 83.75 C-1.47038023 81.63172869 0.81583101 79.67750698 2.1875 75.5625 C2.68673837 70.34914194 2.81364705 65.94002351 0.625 61.125 C-4.8220583 55.39860538 -11.05950312 53.74363685 -18.46484375 51.55859375 C-30.87401253 47.86625065 -41.32299061 43.79485671 -48.1875 32.25 C-49.69438753 25.77038363 -49.52698441 18.64294508 -46.8125 12.5625 C-35.99530745 -2.08056275 -17.12025322 -7.88490034 0 0 Z " fill="#F9F9F9" transform="translate(575.8125,85.4375)"/>
<path d="M0 0 C20.79 0 41.58 0 63 0 C63 3.3 63 6.6 63 10 C46.17 10 29.34 10 12 10 C12 20.89 12 31.78 12 43 C27.18 43 42.36 43 58 43 C58 46.3 58 49.6 58 53 C42.82 53 27.64 53 12 53 C12 63.89 12 74.78 12 86 C29.16 86 46.32 86 64 86 C64 89.3 64 92.6 64 96 C42.88 96 21.76 96 0 96 C0 64.32 0 32.64 0 0 Z " fill="#F8F8F8" transform="translate(30,84)"/>
<path d="M0 0 C20.46 0 40.92 0 62 0 C62 3.3 62 6.6 62 10 C45.5 10 29 10 12 10 C12 20.89 12 31.78 12 43 C27.18 43 42.36 43 58 43 C58 46.3 58 49.6 58 53 C42.82 53 27.64 53 12 53 C12 63.89 12 74.78 12 86 C29.16 86 46.32 86 64 86 C64 89.3 64 92.6 64 96 C42.88 96 21.76 96 0 96 C0 64.32 0 32.64 0 0 Z " fill="#F8F8F8" transform="translate(367,84)"/>
<path d="M0 0 C4.70343266 -1.22896144 8.32224606 -1.4354481 13 0 C17.55356168 4.1521071 20.39797933 9.98977501 23.41601562 15.28613281 C26.17714733 20.01682641 29.23457504 24.55402485 32.25 29.125 C33.36114434 30.83478896 34.47067945 32.54562549 35.578125 34.2578125 C36.04637695 34.9811377 36.51462891 35.70446289 36.99707031 36.44970703 C37.32803711 36.96130371 37.65900391 37.47290039 38 38 C40.68980903 34.69582214 43.21983198 31.33487707 45.64453125 27.83203125 C46.32193359 26.85556641 46.99933594 25.87910156 47.69726562 24.87304688 C48.39529297 23.86306641 49.09332031 22.85308594 49.8125 21.8125 C51.87413386 18.8371655 53.93580978 15.86229798 56.01391602 12.8984375 C57.32874128 10.9796169 58.60131207 9.03109004 59.82788086 7.0546875 C64.16446912 0.23132084 64.16446912 0.23132084 68.52734375 -0.9765625 C69.65269531 -0.86054687 70.77804688 -0.74453125 71.9375 -0.625 C73.65259766 -0.48964844 73.65259766 -0.48964844 75.40234375 -0.3515625 C76.68818359 -0.17753906 76.68818359 -0.17753906 78 0 C76.48990298 4.51332369 73.97100819 8.00106538 71.125 11.75 C70.13153071 13.08237854 69.13939334 14.41575102 68.1484375 15.75 C67.3745166 16.79027344 67.3745166 16.79027344 66.58496094 17.8515625 C59.35600886 27.65051171 52.36824042 37.61797425 46 48 C46.32572998 48.45101074 46.65145996 48.90202148 46.98706055 49.36669922 C47.97876274 50.73982533 48.97046162 52.11295382 49.9621582 53.48608398 C51.12603424 55.09759199 52.28993453 56.70908248 53.45385742 58.32055664 C56.46198378 62.48543734 59.46975922 66.65057025 62.4765625 70.81640625 C63.03230957 71.58621826 63.58805664 72.35603027 64.16064453 73.14916992 C65.25563468 74.66606952 66.35036431 76.18315723 67.44482422 77.70043945 C69.81743025 80.98769278 72.19413299 84.27145902 74.59375 87.5390625 C75.69203125 89.03566406 75.69203125 89.03566406 76.8125 90.5625 C77.43769531 91.40941406 78.06289062 92.25632812 78.70703125 93.12890625 C80 95 80 95 80 96 C77.81820422 96.24511159 75.62829876 96.41857891 73.4375 96.5625 C71.61025391 96.71912109 71.61025391 96.71912109 69.74609375 96.87890625 C64.01652123 95.53463741 62.13814899 91.74118225 59 87 C58.45400146 86.22100342 57.90800293 85.44200684 57.34545898 84.6394043 C55.70498611 82.29675092 54.099018 79.93360767 52.5 77.5625 C51.37163593 75.89806981 50.24273432 74.2340039 49.11328125 72.5703125 C48.31204834 71.38937012 48.31204834 71.38937012 47.49462891 70.18457031 C45.07862586 66.65330679 42.58752917 63.17749176 40.07421875 59.71484375 C39 58 39 58 39 56 C38.34 56 37.68 56 37 56 C36.67128906 56.99966797 36.67128906 56.99966797 36.3359375 58.01953125 C34.21324518 62.7552454 31.06219071 66.72345504 28.00732422 70.89819336 C25.12884013 74.87290084 22.45473628 78.84684873 20.03125 83.1171875 C13.05409556 95.15447694 13.05409556 95.15447694 9.11035156 96.77783203 C4.95250553 97.51597803 1.06642738 96.97449887 -3 96 C0.7678775 89.81450826 4.74895827 83.87524617 9.0625 78.0625 C13.66842799 71.85059534 18.17525306 65.5748226 22.625 59.25 C23.24125244 58.37996338 23.85750488 57.50992676 24.49243164 56.61352539 C25.35082642 55.3894397 25.35082642 55.3894397 26.2265625 54.140625 C26.73783691 53.41391602 27.24911133 52.68720703 27.77587891 51.93847656 C29.16057711 49.91686658 29.16057711 49.91686658 30 47 C29.0305367 44.87879032 29.0305367 44.87879032 27.46728516 42.66796875 C26.60111069 41.36146362 26.60111069 41.36146362 25.71743774 40.02856445 C25.08107391 39.09101318 24.44471008 38.15346191 23.7890625 37.1875 C22.82496964 35.73960083 22.82496964 35.73960083 21.84140015 34.26245117 C19.77892742 31.16838255 17.70266455 28.08388344 15.625 25 C13.5568686 21.91459747 11.49167033 18.82728781 9.43002319 15.73754883 C8.14448267 13.81262205 6.85473399 11.89049789 5.56045532 9.97143555 C4.97670135 9.10043213 4.39294739 8.22942871 3.79150391 7.33203125 C3.27552643 6.56608643 2.75954895 5.8001416 2.22793579 5.01098633 C1 3 1 3 0 0 Z " fill="#F9F9F9" transform="translate(104,84)"/>
<path d="M0 0 C4.434375 -0.0825 8.86875 -0.165 13.4375 -0.25 C15.50729126 -0.30462402 15.50729126 -0.30462402 17.61889648 -0.36035156 C24.8542519 -0.42520981 30.82299903 -0.03229516 37 4 C41.43356023 8.43356023 42.14640227 12.20886692 42.25 18.3125 C42.17470592 24.58700669 41.26539842 28.73460158 36.6875 33.3125 C31.66466559 36.46637277 27.16509945 37.2492211 21.2890625 37.1953125 C19.60611084 37.18781982 19.60611084 37.18781982 17.88916016 37.18017578 C15.77840088 37.15286377 15.77840088 37.15286377 13.625 37.125 C9.12875 37.08375 4.6325 37.0425 0 37 C0 24.79 0 12.58 0 0 Z " fill="#030303" transform="translate(210,94)"/>
<path d="M0 0 C6.8990625 -0.12375 6.8990625 -0.12375 13.9375 -0.25 C16.08560181 -0.30462402 16.08560181 -0.30462402 18.27709961 -0.36035156 C25.50700305 -0.42288264 31.91013029 -0.27488326 38 4 C41.67939247 7.94856461 43.29595271 11.5857581 43.5625 17 C43.27890299 21.9821097 42.00719307 25.99349354 39 30 C33.36360196 34.67701114 28.51553543 35.13020792 21.38671875 35.09765625 C19.70002075 35.09390991 19.70002075 35.09390991 17.97924805 35.09008789 C16.56297119 35.08098389 15.14669434 35.07187988 13.6875 35.0625 C9.170625 35.041875 4.65375 35.02125 0 35 C0 23.45 0 11.9 0 0 Z " fill="#020202" transform="translate(293,94)"/>
</svg>
