<?xml version="1.0" encoding="UTF-8"?>
<svg version="1.1" xmlns="http://www.w3.org/2000/svg" width="280" height="280">
<path d="M0 0 C1.01586182 0.27287842 1.01586182 0.27287842 2.05224609 0.55126953 C16.58529462 4.60371939 30.6396381 11.3795358 43 20 C44.02738281 20.70769531 45.05476562 21.41539063 46.11328125 22.14453125 C51.84350072 26.18553736 51.84350072 26.18553736 54 28 C54 28.66 54 29.32 54 30 C54.53496094 30.21269531 55.06992188 30.42539062 55.62109375 30.64453125 C66.67792306 36.94456371 75.06336505 49.63424581 82 60 C82.64582031 60.96164063 83.29164063 61.92328125 83.95703125 62.9140625 C92.23945965 76.1883834 97.70662152 91.75589665 101 107 C101.17515137 107.7410498 101.35030273 108.48209961 101.53076172 109.24560547 C103.42563121 118.11819242 103.39633386 126.9695691 103.375 136 C103.37478851 136.82292542 103.37457703 137.64585083 103.37435913 138.49371338 C103.34284931 150.76044018 102.66801032 162.21836289 99 174 C98.63337356 175.297968 98.26748443 176.5961445 97.90234375 177.89453125 C92.30998049 196.3019371 82.20954431 213.22002531 70 228 C69.16082031 229.04027344 69.16082031 229.04027344 68.3046875 230.1015625 C66.92167551 231.77854805 65.46728158 233.39622711 64 235 C63.34 235 62.68 235 62 235 C61.76667969 235.57492188 61.53335938 236.14984375 61.29296875 236.7421875 C51.69207892 253.50748757 21.45915624 265.78831157 4 271 C-1.63081665 272.49280943 -7.3049716 273.77835353 -13 275 C-14.10867432 275.26478149 -14.10867432 275.26478149 -15.23974609 275.53491211 C-18.78710005 276.13262211 -22.29161913 276.20050211 -25.87890625 276.23828125 C-26.63921646 276.24812042 -27.39952667 276.25795959 -28.18287659 276.26809692 C-69.74849541 276.69503496 -105.48493581 265.98247549 -136.0390625 236.19042969 C-136.58304688 235.65321289 -137.12703125 235.11599609 -137.6875 234.5625 C-138.21730469 234.04204102 -138.74710938 233.52158203 -139.29296875 232.98535156 C-143 229.24627815 -143 229.24627815 -143 227 C-143.66 227 -144.32 227 -145 227 C-158.0718686 211.68811636 -167.72429798 192.38207566 -173 173 C-173.19754883 172.27731934 -173.39509766 171.55463867 -173.59863281 170.81005859 C-179.47970356 148.1568671 -179.26624485 122.51111134 -173 100 C-172.81808105 99.30068359 -172.63616211 98.60136719 -172.44873047 97.88085938 C-163.47718751 63.66232019 -139.25668461 32.94838281 -109 15 C-76.10799393 -3.47402653 -36.71049647 -10.00149411 0 0 Z M-43 67 C-46.96 75.91 -50.92 84.82 -55 94 C-57.12728253 98.69668101 -59.25466615 103.39235741 -61.40045166 108.08044434 C-67.05278266 120.43606061 -72.61656938 132.8296231 -78.125 145.25 C-78.45924988 146.00362823 -78.79349976 146.75725647 -79.13787842 147.53372192 C-79.80766035 149.04398548 -80.47742972 150.55425461 -81.14718628 152.06452942 C-81.63893845 153.17340767 -81.63893845 153.17340767 -82.140625 154.3046875 C-82.62838913 155.4046833 -82.62838913 155.4046833 -83.12600708 156.52690125 C-86.09127706 163.21146912 -89.07200836 169.8890395 -92.06286621 176.56219482 C-92.86224079 178.34651952 -93.66013639 180.13150656 -94.45800781 181.91650391 C-96.95390931 187.4892086 -99.47756601 193.04610047 -102.0625 198.578125 C-102.77623779 200.11460693 -102.77623779 200.11460693 -103.50439453 201.68212891 C-104.3926981 203.58943407 -105.28902622 205.49303055 -106.19482422 207.39208984 C-106.5817041 208.22434082 -106.96858398 209.0565918 -107.3671875 209.9140625 C-107.70862793 210.6354541 -108.05006836 211.3568457 -108.40185547 212.10009766 C-109.26324999 214.18778391 -109.26324999 214.18778391 -108 217 C-106.96746094 216.2471875 -105.93492188 215.494375 -104.87109375 214.71875 C-93.30688226 206.31366716 -81.60222047 198.1237472 -69.85302734 189.97998047 C-59.23804643 182.61326001 -48.64951267 175.20862433 -38.14746094 167.68164062 C-30.06963557 161.89355535 -21.93623475 156.18373311 -13.81347656 150.45898438 C-9.55931715 147.46030685 -5.30711729 144.45889038 -1.05761719 141.45361328 C0.3288466 140.47413945 1.71623658 139.49597551 3.10449219 138.51904297 C5.09263173 137.11986053 7.07785872 135.71663818 9.0625 134.3125 C9.96585083 133.67900635 9.96585083 133.67900635 10.88745117 133.03271484 C12.27644931 132.04689456 13.641263 131.02712766 15 130 C15 129.67 15 129.34 15 129 C-3.81 128.67 -22.62 128.34 -42 128 C-22.40757042 113.84991197 -22.40757042 113.84991197 -16.65625 109.8515625 C-13.07267308 107.35359859 -9.5053812 104.83281263 -5.9375 102.3125 C-5.20909912 101.7980835 -4.48069824 101.28366699 -3.73022461 100.75366211 C-2.23270598 99.69602219 -0.73522921 98.63832299 0.76220703 97.58056641 C5.04038992 94.55886053 9.31957401 91.53857228 13.59912109 88.51879883 C17.28002822 85.92118855 20.9594586 83.32152104 24.63671875 80.71875 C25.39855469 80.17992188 26.16039062 79.64109375 26.9453125 79.0859375 C28.39499554 78.06055193 29.84424444 77.03455218 31.29296875 76.0078125 C34.32876683 73.86140839 37.3715079 71.74615682 40.48828125 69.71875 C41.31714844 69.1515625 42.14601562 68.584375 43 68 C43 67.67 43 67.34 43 67 C14.62 67 -13.76 67 -43 67 Z " fill="#059689" transform="translate(177,4)"/>
<path d="M0 0 C0.99 0.495 0.99 0.495 2 1 C1.8125 3.875 1.8125 3.875 1 7 C-1.5625 8.375 -1.5625 8.375 -4 9 C-3.34 8.01 -2.68 7.02 -2 6 C-29.72 5.67 -57.44 5.34 -86 5 C-85.67 4.34 -85.34 3.68 -85 3 C-56.95 2.67 -28.9 2.34 0 2 C0 1.34 0 0.68 0 0 Z " fill="#1B8C82" transform="translate(220,66)"/>
<path d="M0 0 C0.66 0.33 1.32 0.66 2 1 C2 1.66 2 2.32 2 3 C16.19 3.33 30.38 3.66 45 4 C45 4.66 45 5.32 45 6 C28.17 6 11.34 6 -6 6 C-4 4 -2 2 0 0 Z " fill="#1D8C7F" transform="translate(140,127)"/>
<path d="M0 0 C0.82791734 2.9076457 1.16193659 5.54090519 1.1875 8.5625 C1.20167969 9.32691406 1.21585938 10.09132813 1.23046875 10.87890625 C1 13 1 13 -1 16 C-1.99 16.33 -2.98 16.66 -4 17 C-4.95117358 19.03277473 -4.95117358 19.03277473 -5.5625 21.4375 C-6.80269058 25.80269058 -6.80269058 25.80269058 -9 28 C-7.7697772 19.86584031 -5.10466095 12.59248816 -2 5 C-1.33255586 3.33364453 -0.66560395 1.66709136 0 0 Z " fill="#148A7F" transform="translate(13,79)"/>
<path d="M0 0 C0.33 0.66 0.66 1.32 1 2 C0.34 2 -0.32 2 -1 2 C-1 2.99 -1 3.98 -1 5 C-1.66 5 -2.32 5 -3 5 C-2.835 5.928125 -2.67 6.85625 -2.5 7.8125 C-2 11 -2 11 -2 14 C-2.433125 13.505 -2.86625 13.01 -3.3125 12.5 C-4.99740483 10.66781808 -4.99740483 10.66781808 -8 11 C-8 11.66 -8 12.32 -8 13 C-9.96147874 14.38938077 -11.96166576 15.7260411 -14 17 C-14.66 16.67 -15.32 16.34 -16 16 C-14.27538679 14.07906479 -12.54557391 12.163278 -10.8125 10.25 C-10.32974609 9.71117187 -9.84699219 9.17234375 -9.34960938 8.6171875 C-6.43837795 5.41287909 -3.47293499 2.6158121 0 0 Z " fill="#0F8F81" transform="translate(48,34)"/>
<path d="M0 0 C0.33 0.66 0.66 1.32 1 2 C-2.75 5 -2.75 5 -5 5 C-5 5.99 -5 6.98 -5 8 C-5.61875 8.28875 -6.2375 8.5775 -6.875 8.875 C-9.13325765 9.93720042 -9.13325765 9.93720042 -11 12 C-11.33 11.67 -11.66 11.34 -12 11 C-12.33 11.99 -12.66 12.98 -13 14 C-14.48828125 15.203125 -14.48828125 15.203125 -16.3125 16.25 C-17.20388672 16.78367187 -17.20388672 16.78367187 -18.11328125 17.328125 C-20.4491564 18.15994803 -21.69274206 17.7945524 -24 17 C-16.02884665 11.29155156 -8.04787518 5.60013434 0 0 Z " fill="#148D80" transform="translate(173,104)"/>
<path d="M0 0 C6.92452313 0.86743486 13.37180776 2.64038689 19.9375 4.9375 C20.670896 5.19031738 21.40429199 5.44313477 22.15991211 5.70361328 C23.20804077 6.08042236 23.20804077 6.08042236 24.27734375 6.46484375 C24.89859131 6.687771 25.51983887 6.91069824 26.15991211 7.14038086 C28 8 28 8 32 11 C26.555 10.505 26.555 10.505 21 10 C21 9.34 21 8.68 21 8 C20.01 8 19.02 8 18 8 C18 7.34 18 6.68 18 6 C16.6696875 5.814375 16.6696875 5.814375 15.3125 5.625 C12.25774821 5.04863174 9.85529103 4.18390116 7 3 C4.67251306 2.31320058 2.34013344 1.64238957 0 1 C0 0.67 0 0.34 0 0 Z " fill="#1A8176" transform="translate(169,3)"/>
<path d="M0 0 C0.99 0 1.98 0 3 0 C1.00724316 6.34498325 -1.35336426 12.42831917 -4.0625 18.5 C-4.5894043 19.71429688 -4.5894043 19.71429688 -5.12695312 20.953125 C-5.46791016 21.72140625 -5.80886719 22.4896875 -6.16015625 23.28125 C-6.46574463 23.97283203 -6.77133301 24.66441406 -7.08618164 25.37695312 C-8 27 -8 27 -10 28 C-9.67 25.69 -9.34 23.38 -9 21 C-8.34 21 -7.68 21 -7 21 C-6.34 17.37 -5.68 13.74 -5 10 C-4.01 10 -3.02 10 -2 10 C-1.855625 9.278125 -1.71125 8.55625 -1.5625 7.8125 C-1.04166667 5.20833333 -0.52083333 2.60416667 0 0 Z " fill="#17877C" transform="translate(81,183)"/>
<path d="M0 0 C0.99 0.33 1.98 0.66 3 1 C3 1.99 3 2.98 3 4 C3.69867188 4.19335938 4.39734375 4.38671875 5.1171875 4.5859375 C6.48230469 4.97652344 6.48230469 4.97652344 7.875 5.375 C8.77992187 5.63023437 9.68484375 5.88546875 10.6171875 6.1484375 C13.58490409 7.2090313 14.65951326 8.35685838 16.125 11.125 C16.41375 11.74375 16.7025 12.3625 17 13 C12.31901072 11.65254881 8.71395856 9.72776271 4.6875 7 C3.63949219 6.29875 2.59148438 5.5975 1.51171875 4.875 C-1 3 -1 3 -2 1 C-1.34 0.67 -0.68 0.34 0 0 Z " fill="#148A7E" transform="translate(58,251)"/>
<path d="M0 0 C0.33 0.66 0.66 1.32 1 2 C0.10375977 4.52197266 0.10375977 4.52197266 -1.30859375 7.6640625 C-1.80810547 8.78554687 -2.30761719 9.90703125 -2.82226562 11.0625 C-3.35529297 12.238125 -3.88832031 13.41375 -4.4375 14.625 C-4.96666016 15.80835938 -5.49582031 16.99171875 -6.04101562 18.2109375 C-7.35372236 21.14383183 -8.67365131 24.07325581 -10 27 C-10.33 27 -10.66 27 -11 27 C-11 25.02 -11 23.04 -11 21 C-10.34 21 -9.68 21 -9 21 C-8.89042969 20.40832031 -8.78085938 19.81664062 -8.66796875 19.20703125 C-7.73191025 14.54195923 -6.71902074 10.97395339 -4 7 C-3.26191271 5.73432684 -2.53310824 4.46320575 -1.8125 3.1875 C-1.214375 2.135625 -0.61625 1.08375 0 0 Z " fill="#188C7E" transform="translate(112,118)"/>
<path d="M0 0 C1.17219543 0.78345715 2.33763668 1.57702836 3.5 2.375 C4.47453125 3.03628906 4.47453125 3.03628906 5.46875 3.7109375 C5.9740625 4.13632813 6.479375 4.56171875 7 5 C7 5.66 7 6.32 7 7 C7.66 7 8.32 7 9 7 C9 7.99 9 8.98 9 10 C9.804375 10.144375 10.60875 10.28875 11.4375 10.4375 C14 11 14 11 15 12 C15.04063832 13.66617115 15.042721 15.33388095 15 17 C13.86800647 16.0919838 12.74467637 15.17316174 11.625 14.25 C10.99851562 13.73953125 10.37203125 13.2290625 9.7265625 12.703125 C7.91687682 10.91800519 6.99882545 9.32050356 6 7 C5.34 7 4.68 7 4 7 C0 2.52941176 0 2.52941176 0 0 Z " fill="#13887A" transform="translate(28,224)"/>
<path d="M0 0 C2 1 2 1 3.2890625 4.67578125 C3.74255075 6.2189751 4.18749501 7.7646989 4.625 9.3125 C4.85445313 10.08529297 5.08390625 10.85808594 5.3203125 11.65429688 C6.38669155 15.34536484 7 18.09381764 7 22 C7.66 22 8.32 22 9 22 C9 23.98 9 25.96 9 28 C3.5762163 19.86432445 1.31074552 9.58604933 0 0 Z " fill="#198278" transform="translate(3,169)"/>
<path d="M0 0 C0.33 0.66 0.66 1.32 1 2 C0.67 2.66 0.34 3.32 0 4 C-0.99 4 -1.98 4 -3 4 C-3.33 5.32 -3.66 6.64 -4 8 C-3.34 8.33 -2.68 8.66 -2 9 C-2.33 9.99 -2.66 10.98 -3 12 C-3.99 11.67 -4.98 11.34 -6 11 C-6.33 10.34 -6.66 9.68 -7 9 C-9.31 9.66 -11.62 10.32 -14 11 C-11.14325205 7.98306057 -8.17651069 5.59445469 -4.75 3.25 C-3.85796875 2.63640625 -2.9659375 2.0228125 -2.046875 1.390625 C-1.03367188 0.70226562 -1.03367188 0.70226562 0 0 Z " fill="#149083" transform="translate(137,172)"/>
<path d="M0 0 C0.33 0.66 0.66 1.32 1 2 C0.0625 4.625 0.0625 4.625 -1 7 C-1.66 7 -2.32 7 -3 7 C-3 7.66 -3 8.32 -3 9 C-5.875 9.625 -5.875 9.625 -9 10 C-9.66 9.34 -10.32 8.68 -11 8 C-7.37 5.36 -3.74 2.72 0 0 Z " fill="#108E84" transform="translate(79,213)"/>
<path d="M0 0 C0.99 0.33 1.98 0.66 3 1 C2.67 1.66 2.34 2.32 2 3 C2.99 2.67 3.98 2.34 5 2 C5 3.98 5 5.96 5 8 C5.66 8 6.32 8 7 8 C7.33 7.34 7.66 6.68 8 6 C8.66 9.63 9.32 13.26 10 17 C6.81321628 14.07647233 4.78276705 11.18387159 2.75 7.375 C1.96882812 5.93253906 1.96882812 5.93253906 1.171875 4.4609375 C0 2 0 2 0 0 Z " fill="#13887C" transform="translate(14,201)"/>
<path d="M0 0 C-0.8125 1.9375 -0.8125 1.9375 -2 4 C-2.99 4.33 -3.98 4.66 -5 5 C-5.33 5.99 -5.66 6.98 -6 8 C-8.31104818 9.05047644 -10.64583651 10.05007438 -13 11 C-13.66 11.66 -14.32 12.32 -15 13 C-15.99 12.67 -16.98 12.34 -18 12 C-2.74927954 0 -2.74927954 0 0 0 Z " fill="#168A7F" transform="translate(184,140)"/>
<path d="M0 0 C5.08515942 4.46877646 8.88789969 9.99809225 12 16 C11.67 16.66 11.34 17.32 11 18 C7.6443794 15.7629196 7.80721959 15.57482962 7 12 C6.34 11.67 5.68 11.34 5 11 C5 10.34 5 9.68 5 9 C4.01 9 3.02 9 2 9 C1.34 6.03 0.68 3.06 0 0 Z " fill="#15867A" transform="translate(250,53)"/>
<path d="M0 0 C2 3 2 3 2 5 C1.34 5 0.68 5 0 5 C0.25561323 7.3431213 0.59270772 9.67843403 1 12 C1.66 12.33 2.32 12.66 3 13 C3.75 14.9375 3.75 14.9375 4 17 C3.34 17.66 2.68 18.32 2 19 C1.34 18.01 0.68 17.02 0 16 C-0.66 16 -1.32 16 -2 16 C-1.85833643 14.08302063 -1.71150416 12.16642277 -1.5625 10.25 C-1.48128906 9.18265625 -1.40007812 8.1153125 -1.31640625 7.015625 C-1.05909227 4.56320038 -0.68187782 2.36078709 0 0 Z " fill="#108B80" transform="translate(3,108)"/>
<path d="M0 0 C0.33 0 0.66 0 1 0 C0.65173073 8.30622213 0.65173073 8.30622213 -1.9375 11.0625 C-4 12 -4 12 -6 12 C-4.68315519 7.39104317 -2.84801255 3.85859765 0 0 Z " fill="#15897A" transform="translate(20,67)"/>
<path d="M0 0 C0.99 0 1.98 0 3 0 C1.55218207 3.44428265 -0.27694609 5.36130962 -3.125 7.75 C-4.21167969 8.67039063 -4.21167969 8.67039063 -5.3203125 9.609375 C-5.87460938 10.06828125 -6.42890625 10.5271875 -7 11 C-7.66 10.67 -8.32 10.34 -9 10 C-7.875 7.0625 -7.875 7.0625 -6 4 C-2.8125 3.125 -2.8125 3.125 0 3 C0 2.01 0 1.02 0 0 Z " fill="#128073" transform="translate(236,239)"/>
<path d="M0 0 C1.35304209 4.05912626 0.15216503 5.77149591 -1.4375 9.6875 C-2.14712891 11.45673828 -2.14712891 11.45673828 -2.87109375 13.26171875 C-3.24363281 14.16535156 -3.61617188 15.06898438 -4 16 C-4.33 16 -4.66 16 -5 16 C-5 13.36 -5 10.72 -5 8 C-4.34 8 -3.68 8 -3 8 C-3 6.68 -3 5.36 -3 4 C-2.34 4 -1.68 4 -1 4 C-0.67 2.68 -0.34 1.36 0 0 Z " fill="#18877C" transform="translate(273,181)"/>
<path d="M0 0 C1.14926266 0.95421808 2.29430541 1.91352045 3.4375 2.875 C4.07558594 3.40867188 4.71367187 3.94234375 5.37109375 4.4921875 C7 6 7 6 8 8 C2.58860759 8.36075949 2.58860759 8.36075949 0.0625 6.8125 C-1 5 -1 5 -0.6875 2.3125 C-0.460625 1.549375 -0.23375 0.78625 0 0 Z " fill="#128D7E" transform="translate(235,37)"/>
<path d="M0 0 C1.65 0 3.3 0 5 0 C1.17225273 4.18659858 -2.94607874 7.37820862 -8 10 C-8.66 10 -9.32 10 -10 10 C-10 9.01 -10 8.02 -10 7 C-9.36191406 6.82984375 -8.72382813 6.6596875 -8.06640625 6.484375 C-6.82697266 6.12085938 -6.82697266 6.12085938 -5.5625 5.75 C-4.73878906 5.51796875 -3.91507813 5.2859375 -3.06640625 5.046875 C-0.80004532 4.19229321 -0.80004532 4.19229321 -0.21484375 1.890625 C-0.14394531 1.26671875 -0.07304687 0.6428125 0 0 Z " fill="#1A867A" transform="translate(219,252)"/>
<path d="M0 0 C-0.375 1.9375 -0.375 1.9375 -1 4 C-1.99 4.495 -1.99 4.495 -3 5 C-2.67 6.32 -2.34 7.64 -2 9 C-2.99 9.33 -3.98 9.66 -5 10 C-5.66 9.34 -6.32 8.68 -7 8 C-7.66 7.67 -8.32 7.34 -9 7 C-6.69 5.35 -4.38 3.7 -2 2 C-4.97 1.505 -4.97 1.505 -8 1 C-4.93251126 -0.86240388 -3.40254489 -1.2151946 0 0 Z " fill="#138D81" transform="translate(193,132)"/>
<path d="M0 0 C0.66 0.33 1.32 0.66 2 1 C-1.51264979 4.9259027 -4.08016572 6.36005524 -9 8 C-10.42055068 10.00136244 -10.42055068 10.00136244 -11 12 C-12.32 11.67 -13.64 11.34 -15 11 C-10.05 7.37 -5.1 3.74 0 0 Z " fill="#17877B" transform="translate(198,86)"/>
<path d="M0 0 C2.79224073 -0.08071788 5.58216566 -0.14035408 8.375 -0.1875 C9.1690625 -0.21263672 9.963125 -0.23777344 10.78125 -0.26367188 C12.85586148 -0.29004405 14.93100865 -0.15486462 17 0 C17.66 0.99 18.32 1.98 19 3 C12.4294834 3.24794402 6.43028541 2.32388229 0 1 C0 0.67 0 0.34 0 0 Z " fill="#14887F" transform="translate(111,277)"/>
<path d="M0 0 C0 3.37610023 -0.40618198 5.02970278 -2 8 C-5.125 10.3125 -5.125 10.3125 -8 12 C-8.66 11.67 -9.32 11.34 -10 11 C-6.7 7.37 -3.4 3.74 0 0 Z " fill="#1B8A7D" transform="translate(42,39)"/>
<path d="M0 0 C0.66 0.33 1.32 0.66 2 1 C1.67 1.99 1.34 2.98 1 4 C-0.70514461 4.75419858 -2.41520755 5.50080699 -4.15625 6.16796875 C-6.27885206 7.03010143 -6.27885206 7.03010143 -8.75 9.25 C-9.4925 9.8275 -10.235 10.405 -11 11 C-11.99 10.67 -12.98 10.34 -14 10 C-9.38 6.7 -4.76 3.4 0 0 Z " fill="#198177" transform="translate(158,157)"/>
<path d="M0 0 C0.66 0.33 1.32 0.66 2 1 C0.02 3.31 -1.96 5.62 -4 8 C-5.32 7.67 -6.64 7.34 -8 7 C-6.88424427 3.65273281 -6.48655378 3.37920252 -3.5625 1.75 C-2.386875 1.1725 -1.21125 0.595 0 0 Z " fill="#107F73" transform="translate(245,231)"/>
<path d="M0 0 C3.46941546 0.45822468 6.67395049 0.89131683 10 2 C9.34 3.65 8.68 5.3 8 7 C4.2047869 5.50902342 2.38957269 3.24299151 0 0 Z " fill="#128A80" transform="translate(43,241)"/>
<path d="M0 0 C0.33 0.66 0.66 1.32 1 2 C0.34 2 -0.32 2 -1 2 C-0.67 2.99 -0.34 3.98 0 5 C-2.8125 6.5625 -2.8125 6.5625 -6 8 C-6.99 7.67 -7.98 7.34 -9 7 C-7.87720538 6.01830524 -6.75168527 5.03972702 -5.625 4.0625 C-4.68527344 3.24458984 -4.68527344 3.24458984 -3.7265625 2.41015625 C-2 1 -2 1 0 0 Z " fill="#19877A" transform="translate(58,26)"/>
<path d="M0 0 C0.66 0.33 1.32 0.66 2 1 C0.17251097 3.46313739 -1.22976216 4.83428618 -4.26953125 5.48828125 C-6.51479346 5.72518293 -8.74455578 5.90361349 -11 6 C-7.57874946 3.12614955 -4.16111563 1.54115394 0 0 Z " fill="#1A897D" transform="translate(86,10)"/>
<path d="M0 0 C0.66 0.33 1.32 0.66 2 1 C2 1.99 2 2.98 2 4 C-4.625 6.125 -4.625 6.125 -8 5 C-6.71475739 4.13619741 -5.42157581 3.28419631 -4.125 2.4375 C-3.04605469 1.72400391 -3.04605469 1.72400391 -1.9453125 0.99609375 C-1.30335937 0.66738281 -0.66140625 0.33867187 0 0 Z " fill="#16887C" transform="translate(73,16)"/>
<path d="M0 0 C5.65394631 -0.34615998 9.03006806 0.56574762 14 3 C11.00468461 3.99843846 9.82744268 4.00732761 6.8125 3.5625 C5.554375 3.376875 4.29625 3.19125 3 3 C3 2.34 3 1.68 3 1 C2.01 0.67 1.02 0.34 0 0 Z " fill="#13887D" transform="translate(187,10)"/>
<path d="M0 0 C1.43861294 0.08746284 2.87597508 0.19565348 4.3125 0.3125 C5.11300781 0.37050781 5.91351563 0.42851562 6.73828125 0.48828125 C9.36272334 1.08206694 10.30820672 1.95780294 12 4 C11.67 4.66 11.34 5.32 11 6 C7.37 4.35 3.74 2.7 0 1 C0 0.67 0 0.34 0 0 Z " fill="#16877A" transform="translate(75,264)"/>
<path d="M0 0 C0 1.98 0 3.96 0 6 C-0.99 6.33 -1.98 6.66 -3 7 C-3.33 7.66 -3.66 8.32 -4 9 C-3.67 7.68 -3.34 6.36 -3 5 C-3.66 4.67 -4.32 4.34 -5 4 C-4.67 3.01 -4.34 2.02 -4 1 C-1 0 -1 0 0 0 Z " fill="#0E8E82" transform="translate(280,153)"/>
<path d="M0 0 C5.75 1.75 5.75 1.75 8 4 C6.02 4.99 6.02 4.99 4 6 C2 4.6875 2 4.6875 0 3 C0 2.01 0 1.02 0 0 Z " fill="#13887E" transform="translate(201,14)"/>
<path d="M0 0 C1.65 0 3.3 0 5 0 C4.01 2.97 3.02 5.94 2 9 C1.67 9 1.34 9 1 9 C0.67 6.03 0.34 3.06 0 0 Z " fill="#118B82" transform="translate(66,212)"/>
<path d="M0 0 C2.475 0.99 2.475 0.99 5 2 C4.67 2.66 4.34 3.32 4 4 C2.02 4 0.04 4 -2 4 C-1.34 2.68 -0.68 1.36 0 0 Z " fill="#0A9181" transform="translate(222,248)"/>
<path d="M0 0 C2.39763185 2.39763185 2.34280586 3.33273498 2.625 6.625 C2.69976562 7.44226563 2.77453125 8.25953125 2.8515625 9.1015625 C2.90054687 9.72804688 2.94953125 10.35453125 3 11 C1.03553095 9.3655205 0.07682209 8.53570606 -0.29296875 5.95703125 C-0.1953125 3.97135417 -0.09765625 1.98567708 0 0 Z " fill="#16867E" transform="translate(274,100)"/>
<path d="M0 0 C2.15377564 2.62198774 3.40072174 4.64404172 4 8 C2.68 8 1.36 8 0 8 C-1.09658936 4.71023192 -0.79953138 3.28696233 0 0 Z " fill="#128A7A" transform="translate(266,79)"/>
<path d="M0 0 C2.88437779 1.29299694 4.87219421 2.65941363 7 5 C5.02 5.99 5.02 5.99 3 7 C2.896875 6.38125 2.79375 5.7625 2.6875 5.125 C2.12474627 2.63473516 2.12474627 2.63473516 -1 1 C-0.67 0.67 -0.34 0.34 0 0 Z " fill="#13867A" transform="translate(214,21)"/>
<path d="M0 0 C2.0625 2.3125 2.0625 2.3125 4 5 C3.67 5.99 3.34 6.98 3 8 C3 7.34 3 6.68 3 6 C1.68 5.67 0.36 5.34 -1 5 C-0.67 3.35 -0.34 1.7 0 0 Z " fill="#14877B" transform="translate(262,71)"/>
<path d="M0 0 C0.99 0.33 1.98 0.66 3 1 C1.71034824 2.37562854 0.37310707 3.70766393 -1 5 C-1.66 5 -2.32 5 -3 5 C-2.625 3.0625 -2.625 3.0625 -2 1 C-1.34 0.67 -0.68 0.34 0 0 Z " fill="#109180" transform="translate(17,74)"/>
<path d="M0 0 C0.66 0.99 1.32 1.98 2 3 C0.02 3.99 0.02 3.99 -2 5 C-2 5.99 -2 6.98 -2 8 C-2.66 8 -3.32 8 -4 8 C-2.87548273 5.0280615 -1.77706209 2.66559313 0 0 Z " fill="#18867A" transform="translate(25,59)"/>
</svg>
