<?xml version="1.0" encoding="UTF-8"?>
<svg version="1.1" xmlns="http://www.w3.org/2000/svg" width="512" height="512">
<path d="M0 0 C3.44972202 1.78085884 6.81615662 3.68343523 10.1652832 5.64599609 C11.12845459 6.199729 11.12845459 6.199729 12.11108398 6.76464844 C15.53255446 8.73249089 18.93082711 10.73630951 22.31762695 12.76318359 C28.04287208 16.1831469 33.82318586 19.50648436 39.6027832 22.83349609 C41.26253174 23.78977905 41.26253174 23.78977905 42.95581055 24.76538086 C45.22716009 26.07396453 47.49864559 27.38231224 49.77026367 28.69042969 C55.23698305 31.83931666 60.70100449 34.99287645 66.1652832 38.14599609 C68.33455137 39.3973028 70.50382221 40.64860488 72.6730957 41.89990234 C76.98129972 44.38530511 81.2885111 46.87241586 85.5949707 49.36083984 C97.40157804 56.18102247 109.2255532 62.9692287 121.07000732 69.72335815 C130.10344596 74.8764233 139.09806168 80.09289828 148.07226562 85.34838867 C155.28230688 89.56427249 162.5242745 93.72137436 169.78048706 97.85702515 C173.86256709 100.18439799 177.94147772 102.51732351 182.02075195 104.84960938 C184.00407879 105.98263103 185.98832913 107.11403907 187.97387695 108.24316406 C190.35470447 109.59891306 192.72962694 110.96437768 195.1027832 112.33349609 C195.7639917 112.70700195 196.4252002 113.08050781 197.10644531 113.46533203 C203.99766149 117.47123512 209.6024837 122.95759758 212.1652832 130.64599609 C212.25860061 132.03798059 212.29790802 133.43397759 212.30229759 134.82907963 C212.30990941 136.11416183 212.30990941 136.11416183 212.31767499 137.42520529 C212.31817275 138.36681885 212.31867051 139.30843241 212.31918335 140.27857971 C212.3235656 141.27864121 212.32794786 142.27870271 212.33246291 143.3090691 C212.34586791 146.67601864 212.35203364 150.042942 212.3581543 153.40991211 C212.366054 155.81774515 212.37432287 158.225577 212.38293457 160.63340759 C212.40690682 167.87141665 212.42208615 175.10942747 212.43499464 182.34746233 C212.43870738 184.39256334 212.44268056 186.43766367 212.4467473 188.48276401 C212.47198777 201.18767575 212.49403686 213.89258859 212.50647545 226.59751987 C212.50940506 229.54019233 212.51236674 232.48286474 212.51538086 235.42553711 C212.51612691 236.15690873 212.51687296 236.88828036 212.51764162 237.64181476 C212.53028706 249.48161843 212.5634992 261.32127164 212.60518269 273.16100503 C212.64764661 285.32234274 212.67117573 297.48360354 212.67639601 309.64501518 C212.6798054 316.47084424 212.69150425 323.29643832 212.72449875 330.12219429 C212.75550229 336.54655433 212.76089107 342.97061742 212.74911499 349.39504433 C212.74889424 351.75003332 212.75720007 354.10504129 212.77476883 356.45996475 C212.7974933 359.6819758 212.78914892 362.9025072 212.77328491 366.12452698 C212.787167 367.05052548 212.80104909 367.97652399 212.81535184 368.93058306 C212.72295515 376.57769923 210.40535798 383.36555434 204.95092773 388.88793945 C204.19924316 389.35337158 203.44755859 389.81880371 202.6730957 390.29833984 C201.80072266 390.84989746 200.92834961 391.40145508 200.02954102 391.96972656 C198.6117334 392.79947998 198.6117334 392.79947998 197.1652832 393.64599609 C196.16078125 394.24428223 195.1562793 394.84256836 194.12133789 395.45898438 C191.36767129 397.06842762 188.60056266 398.64939944 185.8190918 400.21020508 C182.71776707 401.95070972 179.62597206 403.70804348 176.5324707 405.46240234 C175.90717468 405.81638092 175.28187866 406.1703595 174.63763428 406.5350647 C168.78263213 409.85281015 162.97025645 413.24154252 157.1652832 416.64599609 C147.93768502 422.05024696 138.66532898 427.37252399 129.37426758 432.66650391 C121.27784187 437.28102413 113.20721811 441.93694865 105.1652832 446.64599609 C95.93727791 452.04956069 86.6653365 457.37251971 77.37426758 462.66650391 C69.27784025 467.28102506 61.20731144 471.93710615 53.1652832 476.64599609 C39.89058135 484.41598172 26.53524394 492.04144996 13.1652832 499.64599609 C12.2602002 500.16194336 11.35511719 500.67789062 10.42260742 501.20947266 C8.15101989 502.50381688 5.87746474 503.7945993 3.6027832 505.08349609 C2.97243164 505.44290283 2.34208008 505.80230957 1.69262695 506.17260742 C-5.42807423 510.18912793 -11.74754177 510.58197371 -19.8347168 509.64599609 C-24.87729647 507.95484942 -29.28118694 505.34129911 -33.8347168 502.64599609 C-35.5788424 501.63833194 -37.32368865 500.63191451 -39.0690918 499.62646484 C-43.1315863 497.27538222 -47.18133145 494.90371854 -51.2253418 492.52099609 C-58.02001793 488.52460559 -64.86039188 484.61010467 -71.7097168 480.70849609 C-74.08235194 479.35605088 -76.45472883 478.00315366 -78.8269043 476.64990234 C-79.41251129 476.31583878 -79.99811829 475.98177521 -80.60147095 475.6375885 C-87.76319738 471.54921893 -94.90103878 467.41957332 -102.04077148 463.29296875 C-109.40693517 459.03862429 -116.78883868 454.81250554 -124.1784668 450.59912109 C-133.4243341 445.32735465 -142.64953072 440.02304539 -151.8347168 434.64599609 C-160.39021605 429.63854205 -168.97519846 424.68487224 -177.5847168 419.77099609 C-178.16365692 419.4404422 -178.74259705 419.10988831 -179.33908081 418.76931763 C-185.40150008 415.30840597 -191.46734138 411.85357101 -197.53781128 408.40679932 C-200.05409229 406.97750443 -202.56917011 405.54610023 -205.08410645 404.11444092 C-206.83343931 403.11976033 -208.58453404 402.12818029 -210.33569336 401.13671875 C-215.57265533 398.15540335 -220.78002335 395.12937659 -225.91674805 391.97802734 C-227.20995972 391.18682495 -227.20995972 391.18682495 -228.52929688 390.37963867 C-233.15451067 386.90154451 -236.02400671 382.07812635 -237.8347168 376.64599609 C-237.92722362 375.25212238 -237.96556975 373.8542619 -237.96893787 372.45732594 C-237.97339572 371.59937107 -237.97785356 370.7414162 -237.98244649 369.8574627 C-237.98226213 368.91448491 -237.98207777 367.97150711 -237.98188782 366.99995422 C-237.98556451 365.99848159 -237.98924119 364.99700897 -237.9930293 363.96518868 C-238.00408385 360.59356793 -238.00791299 357.22197798 -238.01171875 353.8503418 C-238.01798205 351.43926393 -238.02462873 349.02818704 -238.03163147 346.61711121 C-238.05087133 339.37020986 -238.06146161 332.12331105 -238.07035926 324.87639192 C-238.07474321 321.46295997 -238.08010976 318.04952958 -238.08534813 314.63609886 C-238.1023602 303.28768517 -238.11685398 291.93927245 -238.12409687 280.59084797 C-238.12600674 277.6460959 -238.12792707 274.70134384 -238.12988281 271.7565918 C-238.13036655 271.02469555 -238.13085029 270.29279931 -238.13134869 269.53872439 C-238.13964754 257.68466177 -238.16498205 245.83070011 -238.19746349 233.97668157 C-238.23054578 221.80405235 -238.2485467 209.63147442 -238.25174111 197.45880002 C-238.25390518 190.62524892 -238.26263851 183.79184504 -238.28820229 176.95833778 C-238.31219832 170.5290845 -238.31572759 164.10002418 -238.3054409 157.6707325 C-238.30494474 155.31168487 -238.31128878 152.95262433 -238.32499695 150.59361649 C-238.34267444 147.37107821 -238.33562929 144.14949498 -238.32246399 140.92695618 C-238.33343324 139.99513199 -238.34440248 139.0633078 -238.35570413 138.10324651 C-238.28578982 131.0066753 -236.51345242 125.79877858 -231.89501953 120.36303711 C-225.97635528 115.27179582 -219.71409688 111.36560521 -212.8972168 107.58349609 C-211.16722797 106.60477731 -209.43724867 105.62604119 -207.70785522 104.64627075 C-205.92661126 103.63883108 -204.14283292 102.63599968 -202.35864258 101.63378906 C-196.8233329 98.5187875 -191.33175938 95.32785692 -185.8347168 92.14599609 C-183.66563304 90.89436975 -181.49636177 89.64306832 -179.3269043 88.39208984 C-175.01870028 85.90668708 -170.7114889 83.41957633 -166.4050293 80.93115234 C-154.59842196 74.11096972 -142.7744468 67.32276349 -130.92999268 60.56863403 C-122.87208467 55.97205386 -114.84053893 51.3327545 -106.8347168 46.64599609 C-97.06706676 40.9278306 -87.2522491 35.29502607 -77.41918945 29.69042969 C-69.33217041 25.07995701 -61.26684083 20.43358755 -53.2097168 15.77099609 C-45.63130608 11.3912541 -38.04091731 7.03597079 -30.3972168 2.77099609 C-29.6635791 2.35994629 -28.92994141 1.94889648 -28.17407227 1.52539062 C-19.02686184 -3.54608955 -9.56439427 -4.51003957 0 0 Z " fill="#53A144" transform="translate(268.834716796875,2.35400390625)"/>
<path d="M0 0 C3.10155725 1.55768924 3.89277655 3.8113774 5.46069336 6.86962891 C5.77467072 7.47129883 6.08864807 8.07296875 6.41213989 8.69287109 C7.08809378 9.99136659 7.75796612 11.2930422 8.4223938 12.59747314 C10.18854045 16.06398394 11.99825593 19.50774823 13.80053711 22.95556641 C14.16133865 23.64905182 14.5221402 24.34253723 14.89387512 25.05703735 C17.9914012 30.9973361 21.25313061 36.83364818 24.58959961 42.64306641 C29.38331722 51.02444128 33.99376098 59.49380294 38.52709961 68.01806641 C43.08240045 76.58320995 47.71621878 85.09310023 52.52709961 93.51806641 C57.67538797 102.5339113 62.6104009 111.65379446 67.48510742 120.81933594 C71.7233778 128.78286847 76.05360247 136.68393718 80.52709961 144.51806641 C85.67538797 153.5339113 90.6104009 162.65379446 95.48510742 171.81933594 C99.7233778 179.78286847 104.05360247 187.68393718 108.52709961 195.51806641 C113.67538797 204.5339113 118.6104009 213.65379446 123.48510742 222.81933594 C127.7233778 230.78286847 132.05360247 238.68393718 136.52709961 246.51806641 C141.67538797 255.5339113 146.6104009 264.65379446 151.48510742 273.81933594 C155.723379 281.78287074 160.05367706 289.68389302 164.52709961 297.51806641 C169.39740196 306.04881242 174.09513115 314.66238971 178.71459961 323.33056641 C183.49363385 332.29651696 188.31994854 341.22949032 193.28100586 350.09619141 C195.55429825 354.16058921 197.80655586 358.23645541 200.05444336 362.31494141 C200.41120651 362.96221695 200.76796967 363.60949249 201.13554382 364.27638245 C202.57762857 366.89330165 204.01938422 369.51040146 205.4604187 372.12789917 C206.46916391 373.96003217 207.47856033 375.79180517 208.48803711 377.62353516 C209.10517578 378.74421387 209.72231445 379.86489258 210.3581543 381.01953125 C211.71134505 383.45076134 213.09370684 385.85793824 214.50366211 388.25634766 C216.02709961 391.01806641 216.02709961 391.01806641 216.02709961 393.01806641 C206.63028673 394.38211989 199.9031657 390.5450772 192.02709961 386.01806641 C191.19436523 385.54030762 190.36163086 385.06254883 189.50366211 384.5703125 C184.53220403 381.70442361 179.58084976 378.80538691 174.63647461 375.89306641 C167.84179848 371.8966759 161.00142453 367.98217498 154.15209961 364.08056641 C151.77946447 362.72812119 149.40708757 361.37522397 147.03491211 360.02197266 C146.44930511 359.68790909 145.86369812 359.35384552 145.26034546 359.00965881 C138.09861903 354.92128924 130.96077763 350.79164363 123.82104492 346.66503906 C116.45488124 342.4106946 109.07297772 338.18457586 101.68334961 333.97119141 C92.43748231 328.69942496 83.21228569 323.39511571 74.02709961 318.01806641 C65.47160036 313.01061236 56.88661794 308.05694256 48.27709961 303.14306641 C47.69815948 302.81251251 47.11921936 302.48195862 46.5227356 302.14138794 C40.46031633 298.68047629 34.39447502 295.22564133 28.32400513 291.77886963 C25.80772411 290.34957474 23.2926463 288.91817054 20.77770996 287.48651123 C19.0283771 286.49183065 17.27728236 285.50025061 15.52612305 284.50878906 C10.28916108 281.52747366 5.08179306 278.5014469 -0.05493164 275.35009766 C-1.34814331 274.55889526 -1.34814331 274.55889526 -2.66748047 273.75170898 C-7.29269426 270.27361483 -10.1621903 265.45019667 -11.97290039 260.01806641 C-12.06540722 258.62419269 -12.10375335 257.22633222 -12.10712147 255.82939625 C-12.11380823 254.54246395 -12.11380823 254.54246395 -12.12063009 253.22953302 C-12.12044572 252.28655522 -12.12026136 251.34357742 -12.12007141 250.37202454 C-12.1237481 249.37055191 -12.12742479 248.36907928 -12.13121289 247.33725899 C-12.14226745 243.96563824 -12.14609658 240.59404829 -12.14990234 237.22241211 C-12.15616565 234.81133424 -12.16281233 232.40025735 -12.16981506 229.98918152 C-12.18905493 222.74228017 -12.1996452 215.49538136 -12.20854285 208.24846223 C-12.2129268 204.83503029 -12.21829335 201.42159989 -12.22353172 198.00816917 C-12.24054379 186.65975549 -12.25503757 175.31134276 -12.26228046 163.96291828 C-12.26419033 161.01816621 -12.26611067 158.07341415 -12.26806641 155.12866211 C-12.26855015 154.39676586 -12.26903389 153.66486962 -12.26953229 152.9107947 C-12.27783113 141.05673208 -12.30316564 129.20277042 -12.33564708 117.34875188 C-12.36872937 105.17612267 -12.3867303 93.00354474 -12.38992471 80.83087033 C-12.39208877 73.99731924 -12.4008221 67.16391535 -12.42638588 60.3304081 C-12.45038191 53.90115481 -12.45391118 47.4720945 -12.4436245 41.04280281 C-12.44312833 38.68375519 -12.44947237 36.32469465 -12.46318054 33.9656868 C-12.48085803 30.74314852 -12.47381289 27.52156529 -12.46064758 24.29902649 C-12.47161683 23.3672023 -12.48258608 22.43537811 -12.49388772 21.47531682 C-12.42079123 14.05574161 -10.32907507 7.79718627 -4.97290039 2.45556641 C-1.97290039 0.01806641 -1.97290039 0.01806641 0 0 Z " fill="#3E873E" transform="translate(42.972900390625,118.98193359375)"/>
<path d="M0 0 C3.10155725 1.55768924 3.89277655 3.8113774 5.46069336 6.86962891 C5.77467072 7.47129883 6.08864807 8.07296875 6.41213989 8.69287109 C7.08809378 9.99136659 7.75796612 11.2930422 8.4223938 12.59747314 C10.18854045 16.06398394 11.99825593 19.50774823 13.80053711 22.95556641 C14.16133865 23.64905182 14.5221402 24.34253723 14.89387512 25.05703735 C17.9914012 30.9973361 21.25313061 36.83364818 24.58959961 42.64306641 C29.38331845 51.02444344 33.99369599 59.49383612 38.52709961 68.01806641 C42.59973593 75.6751628 46.70609448 83.3067005 50.99707031 90.84448242 C52.05146471 92.69739105 53.09830213 94.55462217 54.13720703 96.41625977 C56.70967795 101.01711014 59.33924008 105.55326051 62.15357971 110.01147461 C63.22561579 111.72554116 64.26980952 113.45360767 65.30615234 115.18945312 C66.62780971 117.39353774 67.99532463 119.5709836 69.4140625 121.71386719 C71.29719498 124.933209 72.47606009 127.32245838 73.02709961 131.01806641 C71.44721108 135.64412798 69.04072921 139.30861706 66.22824097 143.27523804 C64.37384727 145.96592046 62.82206768 148.81060548 61.23803711 151.66650391 C54.29793505 163.84058093 47.32144862 175.99039004 40.24291992 188.0847168 C36.01314996 195.31465853 31.82695888 202.56880519 27.65209961 209.83056641 C21.72900146 220.12837201 15.69285543 230.35434457 9.61694336 240.56225586 C5.17490358 248.03943192 0.83948495 255.56483452 -3.37133789 263.17431641 C-4.97290039 266.01806641 -4.97290039 266.01806641 -6.97290039 269.01806641 C-10.0718511 264.51958958 -12.09385706 261.33084029 -12.10712147 255.82939625 C-12.11380823 254.54246395 -12.11380823 254.54246395 -12.12063009 253.22953302 C-12.12044572 252.28655522 -12.12026136 251.34357742 -12.12007141 250.37202454 C-12.1237481 249.37055191 -12.12742479 248.36907928 -12.13121289 247.33725899 C-12.14226745 243.96563824 -12.14609658 240.59404829 -12.14990234 237.22241211 C-12.15616565 234.81133424 -12.16281233 232.40025735 -12.16981506 229.98918152 C-12.18905493 222.74228017 -12.1996452 215.49538136 -12.20854285 208.24846223 C-12.2129268 204.83503029 -12.21829335 201.42159989 -12.22353172 198.00816917 C-12.24054379 186.65975549 -12.25503757 175.31134276 -12.26228046 163.96291828 C-12.26419033 161.01816621 -12.26611067 158.07341415 -12.26806641 155.12866211 C-12.26855015 154.39676586 -12.26903389 153.66486962 -12.26953229 152.9107947 C-12.27783113 141.05673208 -12.30316564 129.20277042 -12.33564708 117.34875188 C-12.36872937 105.17612267 -12.3867303 93.00354474 -12.38992471 80.83087033 C-12.39208877 73.99731924 -12.4008221 67.16391535 -12.42638588 60.3304081 C-12.45038191 53.90115481 -12.45391118 47.4720945 -12.4436245 41.04280281 C-12.44312833 38.68375519 -12.44947237 36.32469465 -12.46318054 33.9656868 C-12.48085803 30.74314852 -12.47381289 27.52156529 -12.46064758 24.29902649 C-12.47161683 23.3672023 -12.48258608 22.43537811 -12.49388772 21.47531682 C-12.42079123 14.05574161 -10.32907507 7.79718627 -4.97290039 2.45556641 C-1.97290039 0.01806641 -1.97290039 0.01806641 0 0 Z " fill="#3D9736" transform="translate(42.972900390625,118.98193359375)"/>
</svg>
