<?xml version="1.0" encoding="UTF-8"?>
<svg version="1.1" xmlns="http://www.w3.org/2000/svg" width="512" height="512">
<path d="M0 0 C168.96 0 337.92 0 512 0 C512 168.96 512 337.92 512 512 C343.04 512 174.08 512 0 512 C0 343.04 0 174.08 0 0 Z " fill="#3178C6" transform="translate(0,0)"/>
<path d="M0 0 C0 15.51 0 31.02 0 47 C-5.61 44.36 -11.22 41.72 -17 39 C-20.27598414 37.873731 -23.3004097 36.87329933 -26.625 36.0625 C-27.34816406 35.86849609 -28.07132812 35.67449219 -28.81640625 35.47460938 C-37.15014333 33.2969873 -45.22707954 32.7925284 -53.8125 32.75 C-55.35647461 32.7190625 -55.35647461 32.7190625 -56.93164062 32.6875 C-67.54680716 32.63378632 -77.7827197 34.86004906 -85.5703125 42.55078125 C-89.41098526 46.9730416 -90.4968006 50.74705736 -90.39453125 56.46484375 C-89.32744252 63.32168121 -85.0765619 68.57316346 -79.625 72.625 C-69.74228515 78.90737478 -58.93424467 83.58607951 -48.30493164 88.43359375 C-25.37110351 98.907182 -2.92861261 109.57030934 6.84765625 134.5390625 C11.56118349 148.69562227 11.73822477 164.84686108 7 179 C6.73316406 179.84820312 6.46632813 180.69640625 6.19140625 181.5703125 C0.85531027 196.70110911 -10.74481417 207.50213275 -24.90869141 214.32177734 C-56.6364041 228.90539265 -98.22047957 227.87965215 -131 217 C-136.94 214.525 -136.94 214.525 -143 212 C-143 195.5 -143 179 -143 162 C-135.53072626 166.26815642 -135.53072626 166.26815642 -132.0625 168.8125 C-113.08428908 181.57259403 -89.51601087 185.3491842 -67.08984375 182.50390625 C-59.27042778 180.88514996 -53.15763012 178.32382118 -47.625 172.5 C-44.35752921 167.47312186 -43.15035417 163.01459808 -44 157 C-46.43254555 148.20808537 -53.990145 142.32593099 -61.51953125 137.81640625 C-70.09257 132.97839221 -79.10780949 129.20823673 -88.1875 125.4375 C-109.68849915 116.49296145 -130.60515078 105.07133438 -140.0390625 82.53125 C-145.90693115 67.07442526 -145.99758461 48.70448248 -139.93359375 33.2890625 C-131.96422017 16.19304657 -117.15015855 4.50742313 -99.69067383 -1.87817383 C-68.14623918 -12.61769659 -31.28781899 -10.429273 0 0 Z " fill="#FDFEFE" transform="translate(460,246)"/>
<path d="M0 0 C59.07 0 118.14 0 179 0 C179 13.53 179 27.06 179 41 C157.88 41 136.76 41 115 41 C115 101.39 115 161.78 115 224 C98.17 224 81.34 224 64 224 C64 163.61 64 103.22 64 41 C42.88 41 21.76 41 0 41 C0 27.47 0 13.94 0 0 Z " fill="#FEFEFE" transform="translate(118,243)"/>
<path d="M0 0 C0.33 0 0.66 0 1 0 C1 13.2 1 26.4 1 40 C-12.2 40 -25.4 40 -39 40 C-35.77794772 38.38897386 -32.66489916 37.09649079 -29.3125 35.8125 C-15.51707063 30.0826079 -7.84569744 20.43421151 -2 7 C-1.17531121 4.65945467 -0.55058312 2.42256574 0 0 Z " fill="#000000" transform="translate(511,472)"/>
<path d="M0 0 C1.61102614 3.22205228 2.90350921 6.33510084 4.1875 9.6875 C9.9173921 23.48292937 19.56578849 31.15430256 33 37 C35.34054533 37.82468879 37.57743426 38.44941688 40 39 C40 39.33 40 39.66 40 40 C26.8 40 13.6 40 0 40 C0 26.8 0 13.6 0 0 Z " fill="#000000" transform="translate(0,472)"/>
<path d="M0 0 C13.2 0 26.4 0 40 0 C40 13.2 40 26.4 40 40 C38.38897386 36.77794772 37.09649079 33.66489916 35.8125 30.3125 C30.66249766 17.93442421 21.93798281 9.20998854 9.6328125 4 C6.4474446 2.79012733 3.30899315 1.80886499 0 1 C0 0.67 0 0.34 0 0 Z " fill="#000000" transform="translate(472,0)"/>
<path d="M0 0 C13.2 0 26.4 0 40 0 C36.77794772 1.61102614 33.66489916 2.90350921 30.3125 4.1875 C17.93442421 9.33750234 9.20998854 18.06201719 4 30.3671875 C2.79012733 33.5525554 1.80886499 36.69100685 1 40 C0.67 40 0.34 40 0 40 C0 26.8 0 13.6 0 0 Z " fill="#000000" transform="translate(0,0)"/>
</svg>
