<?xml version="1.0" encoding="UTF-8"?>
<svg version="1.1" xmlns="http://www.w3.org/2000/svg" width="1024" height="1024">
<path d="M0 0 C337.92 0 675.84 0 1024 0 C1024 337.92 1024 675.84 1024 1024 C686.08 1024 348.16 1024 0 1024 C0 686.08 0 348.16 0 0 Z " fill="#4074B5" transform="translate(0,0)"/>
<path d="M0 0 C1.34353514 0.00504072 2.68707161 0.00973765 4.03060913 0.01409912 C41.99825914 0.15598742 80.9569859 3.13279436 116.5625 17.375 C116.5625 46.745 116.5625 76.115 116.5625 106.375 C112.22494298 105.5074886 110.74446777 105.07784563 107.3125 102.8125 C102.66230131 99.92183595 97.88680722 97.51078712 92.9375 95.1875 C91.88127441 94.68851196 91.88127441 94.68851196 90.80371094 94.17944336 C73.14131844 85.97257106 54.75890093 82.09641677 35.5625 79.375 C34.85311279 79.26752441 34.14372559 79.16004883 33.4128418 79.04931641 C26.49092626 78.12113739 19.52334332 78.22425144 12.5534668 78.24462891 C10.39689969 78.24994601 8.24054481 78.24467981 6.08398438 78.23828125 C-16.13533235 78.22301352 -37.3487641 80.11743289 -54.23828125 96.10546875 C-61.44953372 103.54727636 -63.97891189 110.59887573 -64.00537109 120.98291016 C-63.66733125 131.10800819 -58.73470328 139.32766805 -51.9375 146.625 C-41.78617681 155.97893829 -29.85753693 162.57292991 -17.44824219 168.42480469 C-15.50242785 169.34431773 -13.56700163 170.28288548 -11.6328125 171.2265625 C-2.91100815 175.44445733 5.95837866 179.27640871 14.875 183.0625 C46.55789755 196.55631277 77.47994506 210.24587551 102.5625 234.375 C103.27921875 235.01695312 103.9959375 235.65890625 104.734375 236.3203125 C122.26611928 252.51964421 133.00826785 279.23442538 134.4296875 302.71875 C134.49542969 304.52859375 134.49542969 304.52859375 134.5625 306.375 C134.59504883 307.17164063 134.62759766 307.96828125 134.66113281 308.7890625 C135.89716245 343.04830814 126.6174638 374.31396744 103.13867188 399.73974609 C86.1349597 417.3808341 63.53154054 426.4347451 40.5625 433.375 C39.77842773 433.61492676 38.99435547 433.85485352 38.18652344 434.10205078 C12.18526604 441.86469677 -14.26180523 442.74553263 -41.1875 442.75 C-42.44468842 442.75190338 -43.70187683 442.75380676 -44.99716187 442.75576782 C-48.63896382 442.75514376 -52.28017372 442.73704645 -55.921875 442.7109375 C-57.0052565 442.70852554 -58.088638 442.70611359 -59.20484924 442.70362854 C-65.54044554 442.62689173 -71.54985346 442.015274 -77.77947998 440.84875488 C-81.81112786 440.13017005 -85.8596707 439.83318643 -89.9375 439.5 C-100.28437421 438.54570528 -110.31052462 436.66536682 -120.4375 434.375 C-121.68297607 434.09849609 -121.68297607 434.09849609 -122.95361328 433.81640625 C-138.82533265 430.24765369 -153.56547586 424.98478851 -168.4375 418.375 C-168.4375 386.695 -168.4375 355.015 -168.4375 322.375 C-165.15726905 324.01511547 -162.80144512 325.54625002 -159.9375 327.75 C-120.34127294 356.78723318 -69.62161971 371.52251107 -20.54174805 364.44873047 C-6.94558853 362.15735683 10.19759096 357.40295301 19.2578125 346.296875 C25.9939109 336.06389492 28.44159397 326.58495967 26.5625 314.375 C22.76422575 300.0898005 10.92360375 290.03106689 -1.29296875 282.7421875 C-2.67109619 281.94723127 -4.05288526 281.15860237 -5.4375 280.375 C-6.2310791 279.92543945 -7.0246582 279.47587891 -7.84228516 279.01269531 C-22.80027206 270.66155312 -38.28258764 264.05834032 -54.15429688 257.69335938 C-64.11622399 253.69318043 -73.89132315 249.41297983 -83.5625 244.75 C-84.19446289 244.4454187 -84.82642578 244.1408374 -85.47753906 243.82702637 C-96.20141442 238.63611368 -106.58421698 233.09823299 -116.4375 226.375 C-117.01806152 225.97925781 -117.59862305 225.58351563 -118.19677734 225.17578125 C-132.23211502 215.41065755 -144.58726864 203.02064913 -153.4375 188.375 C-154.46423828 186.70630859 -154.46423828 186.70630859 -155.51171875 185.00390625 C-159.8062778 177.69239917 -162.76791784 170.12278544 -165.375 162.0625 C-165.66971191 161.1557251 -165.96442383 160.2489502 -166.26806641 159.31469727 C-174.60245616 132.15488706 -170.96692208 97.50843376 -158.38085938 72.25488281 C-140.75874226 39.2808853 -109.41128255 19.74271282 -74.51586914 9.08129883 C-49.88857241 1.87616881 -25.59204044 -0.15881215 0 0 Z " fill="#000000" transform="translate(795.4375,466.625)"/>
<path d="M0 0 C116.16 0 232.32 0 352 0 C352 26.07 352 52.14 352 79 C310.75 79 269.5 79 227 79 C227 193.84 227 308.68 227 427 C193.67 427 160.34 427 126 427 C126 312.16 126 197.32 126 79 C84.42 79 42.84 79 0 79 C0 52.93 0 26.86 0 0 Z " fill="#000000" transform="translate(238,475)"/>
<path d="M0 0 C0.33 0 0.66 0 1 0 C1 29.37 1 58.74 1 89 C-29.03 89 -59.06 89 -90 89 C-90 88.67 -90 88.34 -90 88 C-89.16339844 87.90203125 -88.32679688 87.8040625 -87.46484375 87.703125 C-60.88741761 84.28897059 -36.97077325 73.00853367 -20.1171875 51.609375 C-18.31214448 49.12451058 -16.63438913 46.59998465 -15 44 C-14.49855469 43.20464844 -13.99710938 42.40929687 -13.48046875 41.58984375 C-6.03301056 28.87610906 -1.17387374 14.6854001 0 0 Z " fill="#000102" transform="translate(1023,935)"/>
<path d="M0 0 C29.37 0 58.74 0 89 0 C89 27.72 89 55.44 89 84 C87.46839304 80.93678608 86.60423348 78.83392877 85.84375 75.61328125 C81.62874018 58.79957833 74.62989297 44.97272597 63 32 C62.17048828 31.03126953 62.17048828 31.03126953 61.32421875 30.04296875 C47.59446351 15.09549685 27.2518851 4.11106223 7 2 C5.60363899 1.79523328 4.20773279 1.58731803 2.8125 1.375 C1.884375 1.25125 0.95625 1.1275 0 1 C0 0.67 0 0.34 0 0 Z " fill="#000101" transform="translate(935,0)"/>
<path d="M0 0 C1.87919318 3.75838636 2.77860597 6.87724336 3.75 10.9375 C5.87387079 19.3606372 9.04629399 27.29874171 13.68359375 34.6796875 C15 37 15 37 15 40 C15.66 40 16.32 40 17 40 C17 40.99 17 41.98 17 43 C17.66 43 18.32 43 19 43 C20.4453125 44.6875 20.4453125 44.6875 22.125 47 C37.58896976 67.38432377 60.93389778 79.39489224 86 83 C86 83.33 86 83.66 86 84 C57.62 84 29.24 84 0 84 C0 56.28 0 28.56 0 0 Z " fill="#000101" transform="translate(0,940)"/>
<path d="M0 0 C28.38 0 56.76 0 86 0 C82.52867224 1.73566388 80.74173453 2.3090258 77.0625 2.8125 C61.38048285 5.5470129 44.44405783 13.73419469 33.078125 24.95703125 C31 27 31 27 28.56640625 28.83984375 C12.95528986 41.97979408 4.59346349 64.51964529 1 84 C0.67 84 0.34 84 0 84 C0 56.28 0 28.56 0 0 Z " fill="#000001" transform="translate(0,0)"/>
</svg>
