<?xml version="1.0" encoding="UTF-8"?>
<svg version="1.1" xmlns="http://www.w3.org/2000/svg" width="337" height="254">
<path d="M0 0 C1.04829483 -0.0071553 2.09658966 -0.01431061 3.176651 -0.02168274 C4.33703384 -0.02437164 5.49741669 -0.02706055 6.69296265 -0.02983093 C7.90771774 -0.03640213 9.12247284 -0.04297333 10.3740387 -0.04974365 C14.4196395 -0.06955138 18.46520043 -0.08116347 22.51083374 -0.09111023 C23.90628453 -0.09515827 25.30173513 -0.0992752 26.69718552 -0.10346031 C33.26515579 -0.12253826 39.83311476 -0.13675361 46.40110743 -0.14507228 C53.95642853 -0.15480056 61.51145319 -0.1809923 69.06667006 -0.22157317 C74.91825864 -0.25191043 80.76976326 -0.26655841 86.62142885 -0.26985329 C90.10908731 -0.27218743 93.59643016 -0.28092819 97.08400345 -0.30631447 C119.92471681 -0.46402103 138.11184639 0.91883297 156.15927124 16.14717102 C168.42665236 28.68903743 173.69638657 44.24182451 173.50863647 61.50410461 C173.05789593 75.9919753 167.47245792 89.971347 158.15927124 101.14717102 C157.49927124 101.14717102 156.83927124 101.14717102 156.15927124 101.14717102 C156.15927124 101.80717102 156.15927124 102.46717102 156.15927124 103.14717102 C155.49927124 103.14717102 154.83927124 103.14717102 154.15927124 103.14717102 C154.15927124 103.80717102 154.15927124 104.46717102 154.15927124 105.14717102 C147.42060836 110.96635279 139.34693107 117.14717102 130.15927124 117.14717102 C131.24215119 118.54335612 132.32559865 119.93910106 133.40927124 121.33467102 C134.04477905 122.15451477 134.68028687 122.97435852 135.33505249 123.81904602 C136.72775164 125.59645222 138.15484354 127.34696328 139.59677124 129.08467102 C141.15927124 131.14717102 141.15927124 131.14717102 141.15927124 133.14717102 C141.81927124 133.14717102 142.47927124 133.14717102 143.15927124 133.14717102 C146.15927124 136.60870948 146.15927124 136.60870948 146.15927124 139.14717102 C146.81927124 139.14717102 147.47927124 139.14717102 148.15927124 139.14717102 C149.14927124 141.62217102 149.14927124 141.62217102 150.15927124 144.14717102 C150.81927124 144.14717102 151.47927124 144.14717102 152.15927124 144.14717102 C152.15927124 144.80717102 152.15927124 145.46717102 152.15927124 146.14717102 C152.81927124 146.14717102 153.47927124 146.14717102 154.15927124 146.14717102 C155.71726083 148.01005095 157.16327847 149.8789516 158.59677124 151.83467102 C162.71519325 157.3322642 167.01341778 162.62313328 171.49105835 167.83149719 C178.15927124 175.5993673 178.15927124 175.5993673 178.15927124 178.14717102 C178.81927124 178.14717102 179.47927124 178.14717102 180.15927124 178.14717102 C181.88583374 180.04560852 181.88583374 180.04560852 183.78427124 182.52217102 C184.41591187 183.3342804 185.04755249 184.14638977 185.69833374 184.98310852 C187.15927124 187.14717102 187.15927124 187.14717102 187.15927124 189.14717102 C187.81927124 189.14717102 188.47927124 189.14717102 189.15927124 189.14717102 C189.48927124 190.46717102 189.81927124 191.78717102 190.15927124 193.14717102 C185.64270216 193.22207585 181.12647501 193.27612425 176.60946655 193.31196594 C175.07717581 193.32692846 173.54492695 193.34730599 172.01278687 193.37348938 C150.5203661 193.73122876 150.5203661 193.73122876 141.78427124 186.27217102 C140.99278687 185.61474915 140.20130249 184.95732727 139.38583374 184.27998352 C137.04961902 182.04213574 135.05423925 179.76897608 133.15927124 177.14717102 C133.15927124 176.48717102 133.15927124 175.82717102 133.15927124 175.14717102 C132.49927124 175.14717102 131.83927124 175.14717102 131.15927124 175.14717102 C129.71395874 173.52998352 129.71395874 173.52998352 128.03427124 171.27217102 C124.68597937 166.82422961 121.20525724 162.50843299 117.66317749 158.21357727 C116.15927124 156.14717102 116.15927124 156.14717102 116.15927124 154.14717102 C115.49927124 154.14717102 114.83927124 154.14717102 114.15927124 154.14717102 C110.15927124 149.67658279 110.15927124 149.67658279 110.15927124 147.14717102 C109.49927124 147.14717102 108.83927124 147.14717102 108.15927124 147.14717102 C106.96786499 145.78388977 106.96786499 145.78388977 105.59677124 143.83467102 C102.25046452 139.19301976 98.60668147 134.8389871 94.91708374 130.46748352 C93.15927124 128.14717102 93.15927124 128.14717102 93.15927124 126.14717102 C92.49927124 126.14717102 91.83927124 126.14717102 91.15927124 126.14717102 C89.43270874 124.24873352 89.43270874 124.24873352 87.53427124 121.77217102 C86.90263062 120.96006165 86.27098999 120.14795227 85.62020874 119.31123352 C84.15927124 117.14717102 84.15927124 117.14717102 84.15927124 115.14717102 C83.49927124 115.14717102 82.83927124 115.14717102 82.15927124 115.14717102 C80.43270874 113.24873352 80.43270874 113.24873352 78.53427124 110.77217102 C77.90263062 109.96006165 77.27098999 109.14795227 76.62020874 108.31123352 C75.15927124 106.14717102 75.15927124 106.14717102 75.15927124 104.14717102 C74.49927124 104.14717102 73.83927124 104.14717102 73.15927124 104.14717102 C72.49927124 102.49717102 71.83927124 100.84717102 71.15927124 99.14717102 C70.49927124 99.14717102 69.83927124 99.14717102 69.15927124 99.14717102 C67.36387568 97.05744832 65.68865682 94.9687502 64.03427124 92.77217102 C63.56634155 92.16888977 63.09841187 91.56560852 62.61630249 90.94404602 C59.15927124 86.40858228 59.15927124 86.40858228 59.15927124 84.14717102 C60.18165138 84.14170258 60.18165138 84.14170258 61.22468567 84.13612366 C68.34702107 84.09417023 75.46871976 84.02473419 82.59066772 83.93965149 C85.24541935 83.90932302 87.89956879 83.89025963 90.55453491 83.87617493 C94.38024128 83.85466205 98.20495765 83.80796502 102.03036499 83.75654602 C103.20884506 83.75531738 104.38732513 83.75408875 105.60151672 83.75282288 C115.4303769 83.57985126 123.19365273 81.27478066 130.15927124 74.14717102 C133.41400033 69.29637286 135.44785003 64.04083793 135.15927124 58.14717102 C133.85751472 51.88380155 131.49565177 45.45697293 126.07723999 41.70576477 C119.38047806 37.80764962 113.7760124 37.00112414 106.06430054 36.94184875 C105.26377762 36.93194916 104.4632547 36.92204956 103.63847351 36.91184998 C101.00350866 36.88036825 98.3685258 36.85553047 95.73348999 36.83076477 C93.90217125 36.81018372 92.07085714 36.78918695 90.23954773 36.76779175 C85.4276912 36.71268991 80.61579265 36.66322835 75.80386353 36.61494446 C70.89039383 36.56464247 65.9769849 36.50900186 61.06356812 36.45381165 C51.42885445 36.34637554 41.79408794 36.24489845 32.15927124 36.14717102 C32.16149185 37.2677037 32.16371246 38.38823639 32.16600037 39.54272461 C32.18658886 50.28869855 32.20141062 61.03466832 32.21108341 71.78065777 C32.21622395 77.30054252 32.22315303 82.82041092 32.23471069 88.34028625 C32.26218356 101.96727222 32.2519843 115.59346057 32.17493439 129.22028351 C32.15963047 132.08004309 32.14897654 134.93979525 32.13845825 137.79957581 C32.11886967 142.12941546 32.07153298 146.45810084 32.0014019 150.78740883 C31.97944298 152.34529605 31.96548013 153.90332141 31.96043587 155.46135521 C31.91714546 165.91674231 30.45499322 173.51883456 24.01864624 181.95185852 C17.77234632 188.08248622 10.82426968 192.87130188 1.79989624 193.24482727 C1.01098999 193.23322571 0.22208374 193.22162415 -0.59072876 193.20967102 C-1.38994751 193.20064758 -2.18916626 193.19162415 -3.01260376 193.18232727 C-3.91752563 193.16492493 -3.91752563 193.16492493 -4.84072876 193.14717102 C-6.35030536 190.12801781 -5.97779255 187.01149586 -5.9677124 183.70025635 C-5.96927239 182.92337812 -5.97083238 182.14649988 -5.97243965 181.34607989 C-5.97644542 178.72889531 -5.97326164 176.11176819 -5.97012329 173.49458313 C-5.97147751 171.62401292 -5.97325755 169.75344297 -5.97543335 167.88287354 C-5.98000494 162.79217147 -5.97821932 157.70148959 -5.97505426 152.61078715 C-5.97252963 147.29410289 -5.97486846 141.97742041 -5.97644043 136.66073608 C-5.97826166 127.7319762 -5.97585686 118.80322457 -5.97109985 109.87446594 C-5.96565566 99.53615976 -5.96742122 89.19787329 -5.97292626 78.85956758 C-5.97745672 69.99843677 -5.97810832 61.13731192 -5.97548759 52.27618033 C-5.97392466 46.97711556 -5.97373152 41.67806007 -5.97702408 36.3789959 C-5.97990187 31.39930989 -5.9779288 26.41964943 -5.97212982 21.4399662 C-5.9708018 19.60690732 -5.97119704 17.77384631 -5.97339249 15.94078827 C-5.97610231 13.44952999 -5.97272496 10.95835494 -5.9677124 8.46710205 C-5.96994312 7.73209896 -5.97217385 6.99709586 -5.97447217 6.23981994 C-5.9516949 0.45234301 -5.71920109 0.0266782 0 0 Z " fill="#A981A8" transform="translate(66.84072875976563,32.85282897949219)"/>
<path d="M0 0 C8.28008814 3.42243643 13.14518885 13.22148179 16.74609375 20.953125 C22.49008817 34.91049461 23.39606622 51.74302505 18 66 C14.73871945 73.41639356 11.21245518 80.74505378 6 87 C5.34 87 4.68 87 4 87 C4 87.66 4 88.32 4 89 C3.34 89 2.68 89 2 89 C2 89.66 2 90.32 2 91 C-4.73866288 96.81918177 -12.81234017 103 -22 103 C-20.91712005 104.3961851 -19.8336726 105.79193004 -18.75 107.1875 C-18.11449219 108.00734375 -17.47898437 108.8271875 -16.82421875 109.671875 C-15.4315196 111.4492812 -14.0044277 113.19979226 -12.5625 114.9375 C-11 117 -11 117 -11 119 C-10.34 119 -9.68 119 -9 119 C-6 122.46153846 -6 122.46153846 -6 125 C-5.34 125 -4.68 125 -4 125 C-3.01 127.475 -3.01 127.475 -2 130 C-1.34 130 -0.68 130 0 130 C0 130.66 0 131.32 0 132 C0.66 132 1.32 132 2 132 C3.55798959 133.86287993 5.00400723 135.73178058 6.4375 137.6875 C10.55592201 143.18509318 14.85414654 148.47596226 19.33178711 153.68432617 C26 161.45219628 26 161.45219628 26 164 C26.66 164 27.32 164 28 164 C29.7265625 165.8984375 29.7265625 165.8984375 31.625 168.375 C32.57246094 169.59316406 32.57246094 169.59316406 33.5390625 170.8359375 C35 173 35 173 35 175 C35.66 175 36.32 175 37 175 C37.33 176.32 37.66 177.64 38 179 C33.48343092 179.07490483 28.96720377 179.12895323 24.45019531 179.16479492 C22.91790457 179.17975744 21.38565571 179.20013497 19.85351562 179.22631836 C-1.63890514 179.58405774 -1.63890514 179.58405774 -10.375 172.125 C-11.16648437 171.46757812 -11.95796875 170.81015625 -12.7734375 170.1328125 C-15.10965222 167.89496472 -17.10503199 165.62180506 -19 163 C-19 162.34 -19 161.68 -19 161 C-19.66 161 -20.32 161 -21 161 C-22.4453125 159.3828125 -22.4453125 159.3828125 -24.125 157.125 C-27.47329187 152.67705859 -30.954014 148.36126197 -34.49609375 144.06640625 C-36 142 -36 142 -36 140 C-36.66 140 -37.32 140 -38 140 C-42 135.52941176 -42 135.52941176 -42 133 C-42.66 133 -43.32 133 -44 133 C-45.19140625 131.63671875 -45.19140625 131.63671875 -46.5625 129.6875 C-49.90880672 125.04584874 -53.55258977 120.69181608 -57.2421875 116.3203125 C-59 114 -59 114 -59 112 C-59.66 112 -60.32 112 -61 112 C-62.7265625 110.1015625 -62.7265625 110.1015625 -64.625 107.625 C-65.25664062 106.81289062 -65.88828125 106.00078125 -66.5390625 105.1640625 C-68 103 -68 103 -68 101 C-68.66 101 -69.32 101 -70 101 C-71.7265625 99.1015625 -71.7265625 99.1015625 -73.625 96.625 C-74.25664062 95.81289062 -74.88828125 95.00078125 -75.5390625 94.1640625 C-77 92 -77 92 -77 90 C-77.66 90 -78.32 90 -79 90 C-79.66 88.35 -80.32 86.7 -81 85 C-81.66 85 -82.32 85 -83 85 C-84.79539556 82.9102773 -86.47061442 80.82157918 -88.125 78.625 C-88.59292969 78.02171875 -89.06085938 77.4184375 -89.54296875 76.796875 C-93 72.26141126 -93 72.26141126 -93 70 C-91.97761986 69.99453156 -91.97761986 69.99453156 -90.93458557 69.98895264 C-83.81225018 69.94699921 -76.69055148 69.87756317 -69.56860352 69.79248047 C-66.91385189 69.762152 -64.25970245 69.74308861 -61.60473633 69.72900391 C-57.77902996 69.70749103 -53.95431359 69.660794 -50.12890625 69.609375 C-48.95042618 69.60814636 -47.77194611 69.60691772 -46.55775452 69.60565186 C-36.72889434 69.43268024 -28.96561851 67.12760964 -22 60 C-17.12103968 52.7284726 -16.40813853 45.48992782 -18 37 C-17.01 37 -16.02 37 -15 37 C-13.37049588 41.12168689 -12.73735399 43.70700357 -14 48 C-13.34 48.33 -12.68 48.66 -12 49 C-12.50952712 53.45836229 -14.19755401 55.58451895 -17 59 C-17.144375 59.70125 -17.28875 60.4025 -17.4375 61.125 C-18.30530971 64.01769905 -20.43481542 64.56826907 -23 66 C-25.1164069 67.94003965 -26.71663103 69.43326207 -28 72 C-30.01822917 71.96744792 -32.03645833 71.93489583 -34.0546875 71.90234375 C-36.08185404 71.87350758 -36.08185404 71.87350758 -38 73 C-39.3474204 73.10210398 -40.69955047 73.14578373 -42.05078125 73.15771484 C-43.30217896 73.17310806 -43.30217896 73.17310806 -44.57885742 73.18881226 C-45.48095947 73.19611359 -46.38306152 73.20341492 -47.3125 73.2109375 C-49.21094628 73.2389957 -51.10938367 73.26766009 -53.0078125 73.296875 C-56.01008962 73.33823139 -59.01219908 73.3751067 -62.01464844 73.40136719 C-64.90594947 73.42886726 -67.79648921 73.4747271 -70.6875 73.5234375 C-71.58960205 73.52669037 -72.4917041 73.52994324 -73.42114258 73.53329468 C-74.25540771 73.54986115 -75.08967285 73.56642761 -75.94921875 73.58349609 C-76.68487061 73.59158295 -77.42052246 73.5996698 -78.1784668 73.60800171 C-80.4152194 73.86804189 -80.4152194 73.86804189 -82 77 C-82.33 76.01 -82.66 75.02 -83 74 C-83 77.06695145 -82.89891537 79.07472348 -80.66796875 81.37109375 C-77.73832773 84.12002357 -77.73832773 84.12002357 -74 85 C-74 86.98 -74 88.96 -74 91 C-73.34 91 -72.68 91 -72 91 C-71.360625 91.99 -70.72125 92.98 -70.0625 94 C-69.381875 94.99 -68.70125 95.98 -68 97 C-67.01 97 -66.02 97 -65 97 C-64.67 98.98 -64.34 100.96 -64 103 C-63.05125 103.20625 -62.1025 103.4125 -61.125 103.625 C-58 105 -58 105 -56.625 108.125 C-56.41875 109.07375 -56.2125 110.0225 -56 111 C-53.36 111.33 -50.72 111.66 -48 112 C-48.495 113.485 -48.495 113.485 -49 115 C-48.67 115.99 -48.34 116.98 -48 118 C-47.01 117.34 -46.02 116.68 -45 116 C-44.01 116 -43.02 116 -42 116 C-42 118.97 -42 121.94 -42 125 C-41.01 125.495 -41.01 125.495 -40 126 C-40 126.66 -40 127.32 -40 128 C-40.66 128 -41.32 128 -42 128 C-42 128.66 -42 129.32 -42 130 C-41.34 130 -40.68 130 -40 130 C-39.566875 130.78375 -39.13375 131.5675 -38.6875 132.375 C-36.73201719 135.41686215 -35.39788151 135.98981901 -32 137 C-31.505 140.465 -31.505 140.465 -31 144 C-28.69 144 -26.38 144 -24 144 C-24 146.64 -24 149.28 -24 152 C-23.01 152.33 -22.02 152.66 -21 153 C-19.3125 154.4375 -19.3125 154.4375 -18 156 C-18 156.66 -18 157.32 -18 158 C-17.34 158.33 -16.68 158.66 -16 159 C-15.7525 159.639375 -15.505 160.27875 -15.25 160.9375 C-13.44682285 163.9127423 -11.2618624 164.14907937 -8 165 C-8 165.99 -8 166.98 -8 168 C-7.67 168.66 -7.34 169.32 -7 170 C-5.02 169.34 -3.04 168.68 -1 168 C-0.31292445 170.49064888 0 172.37886292 0 175 C3.49992696 175.79706768 6.7142231 176.11863027 10.30078125 176.09765625 C11.27724609 176.09443359 12.25371094 176.09121094 13.25976562 176.08789062 C14.26716797 176.07951172 15.27457031 176.07113281 16.3125 176.0625 C17.33923828 176.05798828 18.36597656 176.05347656 19.42382812 176.04882812 C21.94927882 176.03708184 24.47460905 176.02065565 27 176 C26.01 173.69 25.02 171.38 24 169 C24.66 169 25.32 169 26 169 C25.67 168.01 25.34 167.02 25 166 C24.34 165.67 23.68 165.34 23 165 C22.5978125 164.0409375 22.5978125 164.0409375 22.1875 163.0625 C20.60657099 160.31667593 18.88722632 160.11047166 16 159 C15.22227595 156.66682784 14.57584432 154.38564077 14 152 C12.68 152 11.36 152 10 152 C9.34 152 8.68 152 8 152 C8.20625 151.4225 8.4125 150.845 8.625 150.25 C9.09530596 147.42816426 8.60769874 146.33116317 7 144 C3.86650268 142.95550089 3.01031744 143.06576355 0 144 C0.33 143.01 0.66 142.02 1 141 C0.60602665 138.36195411 0.60602665 138.36195411 0 136 C-0.94875 136.185625 -1.8975 136.37125 -2.875 136.5625 C-6 137 -6 137 -8 136 C-7.67 132.7 -7.34 129.4 -7 126 C-9.90600261 124.74335022 -11.79604584 124 -15 124 C-15.495 120.535 -15.495 120.535 -16 117 C-17.32 117.33 -18.64 117.66 -20 118 C-19.34 116.35 -18.68 114.7 -18 113 C-19.98 112.34 -21.96 111.68 -24 111 C-24.19491452 109.54263913 -24.38069358 108.08405407 -24.5625 106.625 C-24.66691406 105.81289062 -24.77132812 105.00078125 -24.87890625 104.1640625 C-25 102 -25 102 -24 100 C-20.54670274 98.27335137 -17.84169158 97.78047477 -14 98 C-14 97.34 -14 96.68 -14 96 C-12.02 95.67 -10.04 95.34 -8 95 C-8 94.01 -8 93.02 -8 92 C-7.34 91.67 -6.68 91.34 -6 91 C-5.505 89.515 -5.505 89.515 -5 88 C-3.35 88 -1.7 88 0 88 C0.556875 86.88625 1.11375 85.7725 1.6875 84.625 C3.25326802 81.84702448 3.81895484 81.09463724 6.75 79.5625 C7.4925 79.376875 8.235 79.19125 9 79 C8.71125 78.154375 8.4225 77.30875 8.125 76.4375 C8 73 8 73 9.1640625 71.39453125 C9.68742187 70.85183594 10.21078125 70.30914062 10.75 69.75 C15.62615121 64.6130314 17.15040898 58.36047589 17.1875 51.375 C17.125625 50.26125 17.06375 49.1475 17 48 C17.66 48 18.32 48 19 48 C18.51908482 42.41885283 17.55700217 37.39760751 16 32 C15.875 29.0625 15.875 29.0625 16 27 C13.99967627 25.99983813 12.16874252 25.50603992 10 25 C9.7834375 23.4221875 9.7834375 23.4221875 9.5625 21.8125 C9.376875 20.554375 9.19125 19.29625 9 18 C8.87625 17.13375 8.7525 16.2675 8.625 15.375 C7.88101279 12.54784861 6.59844324 10.43241362 5 8 C1.44187721 10.01768213 1.44187721 10.01768213 -1.625 12.6875 C-3 14 -3 14 -6 14 C-5.75 12.1875 -5.75 12.1875 -5 10 C-4.34 9.566875 -3.68 9.13375 -3 8.6875 C-0.60758753 7.0229421 -0.60758753 7.0229421 -0.25 3.3125 C-0.1675 2.219375 -0.085 1.12625 0 0 Z M26 171 C27 173 27 173 27 173 Z " fill="#108FC3" transform="translate(219,47)"/>
<path d="M0 0 C0.33 0 0.66 0 1 0 C1 56.43 1 112.86 1 171 C1.66 171 2.32 171 3 171 C3.24621094 170.26910156 3.49242188 169.53820312 3.74609375 168.78515625 C5.13476537 165.70066135 6.72640275 163.87247967 9.0625 161.4375 C13.39949841 156.76527465 17.2042197 151.84341276 20.98828125 146.71875 C23.22680554 143.69348223 25.45690009 140.77429081 28 138 C28.66 138 29.32 138 30 138 C30.226875 137.4225 30.45375 136.845 30.6875 136.25 C32.32802461 133.4376721 34.43778814 131.97029539 37 130 C37.12459983 135.22859225 37.21480498 140.45630019 37.2746582 145.68603516 C37.29963627 147.46092809 37.33363126 149.23571993 37.37719727 151.01025391 C37.66098799 162.87604474 37.2810298 171.08069453 29.859375 180.8046875 C23.61307508 186.9353152 16.66499844 191.72413086 7.640625 192.09765625 C6.85171875 192.08605469 6.0628125 192.07445312 5.25 192.0625 C4.45078125 192.05347656 3.6515625 192.04445312 2.828125 192.03515625 C1.92320313 192.01775391 1.92320313 192.01775391 1 192 C-0.51059936 188.97880128 -0.13341285 185.85963025 -0.12025452 182.5463562 C-0.12110894 181.7687724 -0.12196337 180.9911886 -0.12284368 180.19004166 C-0.12449783 177.57051905 -0.11897816 174.95105973 -0.11352539 172.33154297 C-0.11324348 170.4593506 -0.11340133 168.58715812 -0.1139679 166.71496582 C-0.11425572 161.6201958 -0.10836148 156.52544914 -0.10139394 151.43068457 C-0.09515783 146.11086488 -0.0945564 140.7910447 -0.09336853 135.47122192 C-0.09025598 125.39189905 -0.08204361 115.31258697 -0.07201904 105.23326886 C-0.06085555 93.76064898 -0.05534686 82.2880286 -0.05032361 70.81540465 C-0.03986094 47.21026377 -0.02226296 23.60513249 0 0 Z " fill="#0A70A4" transform="translate(61,34)"/>
<path d="M0 0 C33.33 0 66.66 0 101 0 C100.67 0.66 100.34 1.32 100 2 C99.03578125 1.98839844 98.0715625 1.97679687 97.078125 1.96484375 C95.81484375 1.95582031 94.5515625 1.94679687 93.25 1.9375 C91.37054688 1.92009766 91.37054688 1.92009766 89.453125 1.90234375 C86.65905968 1.98136143 84.64364146 2.28204264 82 3 C73.37272666 3.50313429 64.6505463 2.78211604 56.03540039 2.26806641 C55.15489014 2.21956543 54.27437988 2.17106445 53.3671875 2.12109375 C52.17778564 2.05039673 52.17778564 2.05039673 50.96435547 1.97827148 C48.92019154 1.85769872 48.92019154 1.85769872 47 3 C45.2104531 3.09657872 43.41714466 3.12980468 41.625 3.125 C40.66851562 3.12757812 39.71203125 3.13015625 38.7265625 3.1328125 C36 3 36 3 34.1484375 2.4296875 C31.40251776 1.88050355 28.9712732 2.34505806 26.22509766 2.7421875 C22.38401243 3.18723753 18.54817361 3.06397139 14.6875 3 C8.76376834 2.81495354 8.76376834 2.81495354 3 4 C3 56.14 3 108.28 3 162 C3.66 162.33 4.32 162.66 5 163 C5 162.34 5 161.68 5 161 C5.66 161 6.32 161 7 161 C6.649375 159.9275 6.29875 158.855 5.9375 157.75 C4.66666667 152.66666667 4.66666667 152.66666667 6 150 C6.99 149.67 7.98 149.34 9 149 C9 149.66 9 150.32 9 151 C10.65 150.67 12.3 150.34 14 150 C13.79375 149.071875 13.5875 148.14375 13.375 147.1875 C13 144 13 144 15 141 C17.5625 140.75 17.5625 140.75 20 141 C20.33 141.33 20.66 141.66 21 142 C21.15855469 141.43410156 21.31710938 140.86820313 21.48046875 140.28515625 C22.18581705 138.06779058 22.89153152 136.04806871 24 134 C26.6875 133 26.6875 133 29 133 C29.08226668 129.95613276 28.97608217 127.92824652 28 125 C29.98 125 31.96 125 34 125 C33.98525131 123.87104813 33.97050262 122.74209625 33.95530701 121.57893372 C33.81702077 110.94078095 33.68430186 100.30257137 33.5570364 89.66428089 C33.49142871 84.19501129 33.42385828 78.7257806 33.35180664 73.2565918 C33.2823481 67.97875989 33.21803961 62.70088809 33.15730476 57.42294884 C33.13322505 55.40910246 33.10728821 53.39527741 33.07946587 51.38147926 C33.04082097 48.56140093 33.00877336 45.74131911 32.97827148 42.92114258 C32.96532547 42.08820175 32.95237946 41.25526093 32.93904114 40.39707947 C32.90308827 36.45136803 33.0108549 32.85315285 34 29 C34.99 29 35.98 29 37 29 C37 29.99 37 30.98 37 32 C38.66656881 32.02757191 40.33327851 32.04664803 42 32.0625 C42.928125 32.07410156 43.85625 32.08570313 44.8125 32.09765625 C48.07663726 32.05632929 48.07663726 32.05632929 51.58276367 31.49072266 C56.36104786 30.87862671 61.05474062 30.93576949 65.86328125 31.05078125 C66.77708054 31.0696489 67.69087982 31.08851654 68.63237 31.10795593 C70.54933398 31.14957759 72.46623323 31.1942853 74.38305664 31.24194336 C77.32100094 31.31270475 80.25895624 31.3667653 83.19726562 31.41992188 C85.06512752 31.46252994 86.93296744 31.50611512 88.80078125 31.55078125 C90.11795891 31.57281364 90.11795891 31.57281364 91.46174622 31.59529114 C92.27656967 31.61838852 93.09139313 31.6414859 93.9309082 31.6652832 C94.64624222 31.68162308 95.36157623 31.69796295 96.09858704 31.71479797 C98 32 98 32 101 34 C79.55 34 58.1 34 36 34 C36.08121094 40.8371875 36.16242188 47.674375 36.24609375 54.71875 C36.2818723 59.05733833 36.31557013 63.39574408 36.34179688 67.734375 C36.38359896 74.61692202 36.43298178 81.49881548 36.52807617 88.38085938 C36.60428639 93.93114875 36.64602237 99.48073708 36.6641407 105.0315094 C36.67704775 107.14623548 36.70225312 109.26092436 36.7401104 111.37535095 C36.79113779 114.34416776 36.7979151 117.31011019 36.79467773 120.27929688 C36.81984467 121.14820557 36.8450116 122.01711426 36.87094116 122.91235352 C36.7985121 129.07507734 34.90862371 132.14060985 30.69862461 136.59174347 C29 138 29 138 27 138 C26.73574219 138.58394531 26.47148438 139.16789063 26.19921875 139.76953125 C24.95407889 142.08541027 23.58537896 143.75234379 21.8125 145.6875 C18.65389275 149.21809199 15.72205953 152.86310265 12.83984375 156.62109375 C10.14766657 160.10206169 7.37260454 163.51526196 4.6015625 166.93359375 C2.96656448 168.90483325 2.96656448 168.90483325 2 171 C1.34 171 0.68 171 0 171 C0 114.57 0 58.14 0 0 Z " fill="#EDCF7E" transform="translate(62,34)"/>
<path d="M0 0 C0.99 0 1.98 0 3 0 C3 0.99 3 1.98 3 3 C4.66656881 3.02757191 6.33327851 3.04664803 8 3.0625 C8.928125 3.07410156 9.85625 3.08570312 10.8125 3.09765625 C14.07663726 3.05632929 14.07663726 3.05632929 17.58276367 2.49072266 C22.36104786 1.87862671 27.05474062 1.93576949 31.86328125 2.05078125 C32.77708054 2.0696489 33.69087982 2.08851654 34.63237 2.10795593 C36.54933398 2.14957759 38.46623323 2.1942853 40.38305664 2.24194336 C43.32100094 2.31270475 46.25895624 2.3667653 49.19726562 2.41992188 C51.06512752 2.46252994 52.93296744 2.50611512 54.80078125 2.55078125 C55.67889969 2.56546951 56.55701813 2.58015778 57.46174622 2.59529114 C58.27656967 2.61838852 59.09139313 2.6414859 59.9309082 2.6652832 C61.00390923 2.68979301 61.00390923 2.68979301 62.09858704 2.71479797 C64 3 64 3 67 5 C45.55 5 24.1 5 2 5 C2.08121094 11.8371875 2.16242188 18.674375 2.24609375 25.71875 C2.2818723 30.05733833 2.31557013 34.39574408 2.34179688 38.734375 C2.38359896 45.61692202 2.43298178 52.49881548 2.52807617 59.38085938 C2.60428639 64.93114875 2.64602237 70.48073708 2.6641407 76.0315094 C2.67704775 78.14623548 2.70225312 80.26092436 2.7401104 82.37535095 C2.79113779 85.34416776 2.7979151 88.31011019 2.79467773 91.27929688 C2.81984467 92.14820557 2.8450116 93.01711426 2.87094116 93.91235352 C2.7985121 100.07507734 0.90862371 103.14060985 -3.30137539 107.59174347 C-5 109 -5 109 -7 109 C-7.26425781 109.58394531 -7.52851562 110.16789062 -7.80078125 110.76953125 C-9.04592111 113.08541027 -10.41462104 114.75234379 -12.1875 116.6875 C-15.41989914 120.29622835 -18.40602753 124.03730899 -21.35546875 127.87890625 C-23.50170642 130.64709403 -25.73762491 133.32628399 -28 136 C-28.33 134.68 -28.66 133.36 -29 132 C-28.34 132 -27.68 132 -27 132 C-27.350625 130.9275 -27.70125 129.855 -28.0625 128.75 C-29.33333333 123.66666667 -29.33333333 123.66666667 -28 121 C-26.515 120.505 -26.515 120.505 -25 120 C-25 120.66 -25 121.32 -25 122 C-22.525 121.505 -22.525 121.505 -20 121 C-20.20625 120.071875 -20.4125 119.14375 -20.625 118.1875 C-21 115 -21 115 -19 112 C-16.4375 111.75 -16.4375 111.75 -14 112 C-13.67 112.33 -13.34 112.66 -13 113 C-12.84144531 112.43410156 -12.68289062 111.86820312 -12.51953125 111.28515625 C-11.81418295 109.06779058 -11.10846848 107.04806871 -10 105 C-7.3125 104 -7.3125 104 -5 104 C-4.91773332 100.95613276 -5.02391783 98.92824652 -6 96 C-4.02 96 -2.04 96 0 96 C-0.01474869 94.87104813 -0.02949738 93.74209625 -0.04469299 92.57893372 C-0.18297923 81.94078095 -0.31569814 71.30257137 -0.4429636 60.66428089 C-0.50857129 55.19501129 -0.57614172 49.7257806 -0.64819336 44.2565918 C-0.7176519 38.97875989 -0.78196039 33.70088809 -0.84269524 28.42294884 C-0.86677495 26.40910246 -0.89271179 24.39527741 -0.92053413 22.38147926 C-0.95917903 19.56140093 -0.99122664 16.74131911 -1.02172852 13.92114258 C-1.03467453 13.08820175 -1.04762054 12.25526093 -1.06095886 11.39707947 C-1.09691173 7.45136803 -0.9891451 3.85315285 0 0 Z " fill="#E4BC66" transform="translate(96,63)"/>
<path d="M0 0 C0.99 0 1.98 0 3 0 C4.62950412 4.12168689 5.26264601 6.70700357 4 11 C4.99 11.495 4.99 11.495 6 12 C5.49047288 16.45836229 3.80244599 18.58451895 1 22 C0.855625 22.70125 0.71125 23.4025 0.5625 24.125 C-0.30530971 27.01769905 -2.43481542 27.56826907 -5 29 C-7.1164069 30.94003965 -8.71663103 32.43326207 -10 35 C-12.01822917 34.96744792 -14.03645833 34.93489583 -16.0546875 34.90234375 C-18.08185404 34.87350758 -18.08185404 34.87350758 -20 36 C-21.3474204 36.10210398 -22.69955047 36.14578373 -24.05078125 36.15771484 C-25.30217896 36.17310806 -25.30217896 36.17310806 -26.57885742 36.18881226 C-27.48095947 36.19611359 -28.38306152 36.20341492 -29.3125 36.2109375 C-31.21094628 36.2389957 -33.10938367 36.26766009 -35.0078125 36.296875 C-38.01008962 36.33823139 -41.01219908 36.3751067 -44.01464844 36.40136719 C-46.90594947 36.42886726 -49.79648921 36.4747271 -52.6875 36.5234375 C-53.58960205 36.52669037 -54.4917041 36.52994324 -55.42114258 36.53329468 C-56.25540771 36.54986115 -57.08967285 36.56642761 -57.94921875 36.58349609 C-58.68487061 36.59158295 -59.42052246 36.5996698 -60.1784668 36.60800171 C-62.4152194 36.86804189 -62.4152194 36.86804189 -64 40 C-64.495 38.515 -64.495 38.515 -65 37 C-65 40.06695145 -64.89891537 42.07472348 -62.66796875 44.37109375 C-59.73832773 47.12002357 -59.73832773 47.12002357 -56 48 C-56 49.98 -56 51.96 -56 54 C-55.34 54 -54.68 54 -54 54 C-53.0409375 55.485 -53.0409375 55.485 -52.0625 57 C-51.381875 57.99 -50.70125 58.98 -50 60 C-49.01 60 -48.02 60 -47 60 C-46.855625 60.886875 -46.71125 61.77375 -46.5625 62.6875 C-46.08980022 65.47117646 -45.56929815 68.23483757 -45 71 C-46.70884005 69.37660195 -48.37446717 67.70680947 -50 66 C-50 65.34 -50 64.68 -50 64 C-50.66 64 -51.32 64 -52 64 C-53.7265625 62.1015625 -53.7265625 62.1015625 -55.625 59.625 C-56.25664062 58.81289062 -56.88828125 58.00078125 -57.5390625 57.1640625 C-59 55 -59 55 -59 53 C-59.66 53 -60.32 53 -61 53 C-61.66 51.35 -62.32 49.7 -63 48 C-63.66 48 -64.32 48 -65 48 C-66.79539556 45.9102773 -68.47061442 43.82157918 -70.125 41.625 C-70.59292969 41.02171875 -71.06085938 40.4184375 -71.54296875 39.796875 C-75 35.26141126 -75 35.26141126 -75 33 C-73.97761986 32.99453156 -73.97761986 32.99453156 -72.93458557 32.98895264 C-65.81225018 32.94699921 -58.69055148 32.87756317 -51.56860352 32.79248047 C-48.91385189 32.762152 -46.25970245 32.74308861 -43.60473633 32.72900391 C-39.77902996 32.70749103 -35.95431359 32.660794 -32.12890625 32.609375 C-30.95042618 32.60814636 -29.77194611 32.60691772 -28.55775452 32.60565186 C-18.72889434 32.43268024 -10.96561851 30.12760964 -4 23 C0.87896032 15.7284726 1.59186147 8.48992782 0 0 Z " fill="#6932D2" transform="translate(201,84)"/>
<path d="M0 0 C8.28008814 3.42243643 13.14518885 13.22148179 16.74609375 20.953125 C22.49008817 34.91049461 23.39606622 51.74302505 18 66 C14.73871945 73.41639356 11.21245518 80.74505378 6 87 C5.34 87 4.68 87 4 87 C4 87.66 4 88.32 4 89 C3.34 89 2.68 89 2 89 C2 89.66 2 90.32 2 91 C-4.67964383 96.76821579 -12.53216818 102.6162925 -21.5625 103.25 C-22.366875 103.1675 -23.17125 103.085 -24 103 C-24 102.01 -24 101.02 -24 100 C-20.49223216 98.39644899 -17.85645121 97.77963136 -14 98 C-14 97.34 -14 96.68 -14 96 C-11.03 95.505 -11.03 95.505 -8 95 C-8 94.01 -8 93.02 -8 92 C-7.01 91.505 -7.01 91.505 -6 91 C-5.505 89.515 -5.505 89.515 -5 88 C-3.35 88 -1.7 88 0 88 C0.556875 86.88625 1.11375 85.7725 1.6875 84.625 C3.25326802 81.84702448 3.81895484 81.09463724 6.75 79.5625 C7.4925 79.376875 8.235 79.19125 9 79 C8.71125 78.154375 8.4225 77.30875 8.125 76.4375 C8 73 8 73 9.1640625 71.39453125 C9.68742187 70.85183594 10.21078125 70.30914062 10.75 69.75 C15.62615121 64.6130314 17.15040898 58.36047589 17.1875 51.375 C17.125625 50.26125 17.06375 49.1475 17 48 C17.66 48 18.32 48 19 48 C18.51908482 42.41885283 17.55700217 37.39760751 16 32 C15.875 29.0625 15.875 29.0625 16 27 C13.99967627 25.99983813 12.16874252 25.50603992 10 25 C9.855625 23.948125 9.71125 22.89625 9.5625 21.8125 C9.376875 20.554375 9.19125 19.29625 9 18 C8.87625 17.13375 8.7525 16.2675 8.625 15.375 C7.88101279 12.54784861 6.59844324 10.43241362 5 8 C1.44187721 10.01768213 1.44187721 10.01768213 -1.625 12.6875 C-3 14 -3 14 -6 14 C-5.75 12.1875 -5.75 12.1875 -5 10 C-4.34 9.566875 -3.68 9.13375 -3 8.6875 C-0.60758753 7.0229421 -0.60758753 7.0229421 -0.25 3.3125 C-0.1675 2.219375 -0.085 1.12625 0 0 Z " fill="#652AB8" transform="translate(219,47)"/>
<path d="M0 0 C3.55230779 1.1841026 4.24146766 2.29587186 6.4375 5.25 C7.0459375 6.06082031 7.654375 6.87164062 8.28125 7.70703125 C8.8484375 8.46371094 9.415625 9.22039062 10 10 C10.804375 10.969375 11.60875 11.93875 12.4375 12.9375 C14 15 14 15 14 17 C14.66 17 15.32 17 16 17 C19 20.46153846 19 20.46153846 19 23 C19.66 23 20.32 23 21 23 C21.66 24.65 22.32 26.3 23 28 C23.66 28 24.32 28 25 28 C25 28.66 25 29.32 25 30 C25.66 30 26.32 30 27 30 C28.55798959 31.86287993 30.00400723 33.73178058 31.4375 35.6875 C35.55592201 41.18509318 39.85414654 46.47596226 44.33178711 51.68432617 C51 59.45219628 51 59.45219628 51 62 C51.66 62 52.32 62 53 62 C56.6642613 65.85831875 58.60791281 69.64147506 59 75 C56.69 75 54.38 75 52 75 C51.01 72.36 50.02 69.72 49 67 C49.66 67 50.32 67 51 67 C50.67 66.01 50.34 65.02 50 64 C49.01 63.505 49.01 63.505 48 63 C47.731875 62.360625 47.46375 61.72125 47.1875 61.0625 C45.60657099 58.31667593 43.88722632 58.11047166 41 57 C40.22227595 54.66682784 39.57584432 52.38564077 39 50 C37.68 50 36.36 50 35 50 C34.34 50 33.68 50 33 50 C33.20625 49.4225 33.4125 48.845 33.625 48.25 C34.09530596 45.42816426 33.60769874 44.33116317 32 42 C28.86650268 40.95550089 28.01031744 41.06576355 25 42 C25.33 41.01 25.66 40.02 26 39 C25.60602665 36.36195411 25.60602665 36.36195411 25 34 C24.05125 34.185625 23.1025 34.37125 22.125 34.5625 C19 35 19 35 17 34 C17.33 30.7 17.66 27.4 18 24 C15.09399739 22.74335022 13.20395416 22 10 22 C9.67 19.69 9.34 17.38 9 15 C7.68 15.33 6.36 15.66 5 16 C5.66 14.35 6.32 12.7 7 11 C5.02 10.34 3.04 9.68 1 9 C0.67 6.03 0.34 3.06 0 0 Z M51 69 C52 71 52 71 52 71 Z " fill="#0C8CC1" transform="translate(194,149)"/>
<path d="M0 0 C3.3 0 6.6 0 10 0 C10.495 0.99 10.495 0.99 11 2 C12.32 1.67 13.64 1.34 15 1 C15.2165625 2.175625 15.2165625 2.175625 15.4375 3.375 C15.87798925 5.96421018 15.87798925 5.96421018 17 8 C19.02463255 8.65213292 19.02463255 8.65213292 21 9 C21 10.66666667 21 12.33333333 21 14 C21.9590625 14.1546875 21.9590625 14.1546875 22.9375 14.3125 C23.618125 14.539375 24.29875 14.76625 25 15 C26.09658936 18.28976808 25.79953138 19.71303767 25 23 C22.22386611 22.36545511 20.45303821 21.69758479 18.87109375 19.26171875 C18.31615234 18.23498047 18.31615234 18.23498047 17.75 17.1875 C14.94264688 12.30128413 11.1632495 10.05999509 6 8 C1.65240031 6.89297302 -2.63594063 6.82897421 -7.0949707 6.79467773 C-7.9083726 6.78464501 -8.7217745 6.77461229 -9.55982494 6.76427555 C-12.18178182 6.73299898 -14.80375387 6.70816429 -17.42578125 6.68359375 C-19.04895508 6.6651803 -20.67212417 6.64634308 -22.29528809 6.6270752 C-28.30096918 6.55875005 -34.30674124 6.49861889 -40.3125 6.4375 C-60.4528125 6.2209375 -60.4528125 6.2209375 -81 6 C-81 37.68 -81 69.36 -81 102 C-81.33 102 -81.66 102 -82 102 C-82 69.99 -82 37.98 -82 5 C-55.27 5 -28.54 5 -1 5 C-0.67 3.35 -0.34 1.7 0 0 Z " fill="#774E4B" transform="translate(180,63)"/>
<path d="M0 0 C0.99 0 1.98 0 3 0 C3 0.99 3 1.98 3 3 C4.66656881 3.02757191 6.33327851 3.04664803 8 3.0625 C8.928125 3.07410156 9.85625 3.08570312 10.8125 3.09765625 C14.07663726 3.05632929 14.07663726 3.05632929 17.58276367 2.49072266 C22.36104786 1.87862671 27.05474062 1.93576949 31.86328125 2.05078125 C32.77708054 2.0696489 33.69087982 2.08851654 34.63237 2.10795593 C36.54933398 2.14957759 38.46623323 2.1942853 40.38305664 2.24194336 C43.32100094 2.31270475 46.25895624 2.3667653 49.19726562 2.41992188 C51.06512752 2.46252994 52.93296744 2.50611512 54.80078125 2.55078125 C55.67889969 2.56546951 56.55701813 2.58015778 57.46174622 2.59529114 C58.27656967 2.61838852 59.09139313 2.6414859 59.9309082 2.6652832 C61.00390923 2.68979301 61.00390923 2.68979301 62.09858704 2.71479797 C64 3 64 3 67 5 C45.55 5 24.1 5 2 5 C2 36.68 2 68.36 2 101 C1.67 101 1.34 101 1 101 C0.67 67.67 0.34 34.34 0 0 Z " fill="#EBB77C" transform="translate(96,63)"/>
<path d="M0 0 C33 0 66 0 100 0 C99.67 0.66 99.34 1.32 99 2 C98.03578125 1.98839844 97.0715625 1.97679687 96.078125 1.96484375 C94.81484375 1.95582031 93.5515625 1.94679687 92.25 1.9375 C90.37054688 1.92009766 90.37054688 1.92009766 88.453125 1.90234375 C85.65905968 1.98136143 83.64364146 2.28204264 81 3 C72.37272666 3.50313429 63.6505463 2.78211604 55.03540039 2.26806641 C54.15489014 2.21956543 53.27437988 2.17106445 52.3671875 2.12109375 C51.17778564 2.05039673 51.17778564 2.05039673 49.96435547 1.97827148 C47.92019154 1.85769872 47.92019154 1.85769872 46 3 C44.2104531 3.09657872 42.41714466 3.12980468 40.625 3.125 C39.66851562 3.12757812 38.71203125 3.13015625 37.7265625 3.1328125 C35 3 35 3 33.1484375 2.4296875 C30.40251776 1.88050355 27.9712732 2.34505806 25.22509766 2.7421875 C21.38401243 3.18723753 17.54817361 3.06397139 13.6875 3 C7.76376834 2.81495354 7.76376834 2.81495354 2 4 C1.67 4.99 1.34 5.98 1 7 C0.67 4.69 0.34 2.38 0 0 Z " fill="#EEB070" transform="translate(63,34)"/>
<path d="M0 0 C0.99 0 1.98 0 3 0 C4.62950412 4.12168689 5.26264601 6.70700357 4 11 C4.99 11.495 4.99 11.495 6 12 C5.49047288 16.45836229 3.80244599 18.58451895 1 22 C0.855625 22.70125 0.71125 23.4025 0.5625 24.125 C-0.30530971 27.01769905 -2.43481542 27.56826907 -5 29 C-7.1164069 30.94003965 -8.71663103 32.43326207 -10 35 C-12.01822917 34.96744792 -14.03645833 34.93489583 -16.0546875 34.90234375 C-18.08185404 34.87350758 -18.08185404 34.87350758 -20 36 C-21.99960012 36.039992 -24.00047242 36.04346799 -26 36 C-26 35.67 -26 35.34 -26 35 C-42.17 35 -58.34 35 -75 35 C-75 34.34 -75 33.68 -75 33 C-73.97761986 32.99453156 -73.97761986 32.99453156 -72.93458557 32.98895264 C-65.81225018 32.94699921 -58.69055148 32.87756317 -51.56860352 32.79248047 C-48.91385189 32.762152 -46.25970245 32.74308861 -43.60473633 32.72900391 C-39.77902996 32.70749103 -35.95431359 32.660794 -32.12890625 32.609375 C-30.95042618 32.60814636 -29.77194611 32.60691772 -28.55775452 32.60565186 C-18.72889434 32.43268024 -10.96561851 30.12760964 -4 23 C0.87896032 15.7284726 1.59186147 8.48992782 0 0 Z " fill="#4A1897" transform="translate(201,84)"/>
<path d="M0 0 C2.475 0.495 2.475 0.495 5 1 C5.66 2.98 6.32 4.96 7 7 C9.64 7.33 12.28 7.66 15 8 C14.67 8.99 14.34 9.98 14 11 C14.33 11.99 14.66 12.98 15 14 C15.99 13.34 16.98 12.68 18 12 C18.99 12 19.98 12 21 12 C21 14.97 21 17.94 21 21 C21.66 21.33 22.32 21.66 23 22 C23 22.66 23 23.32 23 24 C22.34 24 21.68 24 21 24 C21 24.66 21 25.32 21 26 C20.01 25.67 19.02 25.34 18 25 C18 24.34 18 23.68 18 23 C17.44828125 22.95746094 16.8965625 22.91492188 16.328125 22.87109375 C12.84368641 21.56735246 11.00730472 18.88741186 8.75 16.0625 C8.29109375 15.51142578 7.8321875 14.96035156 7.359375 14.39257812 C4 10.27834356 4 10.27834356 4 8 C3.34 8 2.68 8 2 8 C-0.1519437 4.77208445 -0.20086443 3.71599191 0 0 Z " fill="#2679EC" transform="translate(156,151)"/>
<path d="M0 0 C7.67321163 3.14447871 12.7436067 12.24572648 16.16796875 19.4609375 C17.53831167 23.64273514 17.41566374 27.65862319 17 32 C16.67 32 16.34 32 16 32 C16 30.35 16 28.7 16 27 C13.99967627 25.99983813 12.16874252 25.50603992 10 25 C9.855625 23.948125 9.71125 22.89625 9.5625 21.8125 C9.376875 20.554375 9.19125 19.29625 9 18 C8.87625 17.13375 8.7525 16.2675 8.625 15.375 C7.88101279 12.54784861 6.59844324 10.43241362 5 8 C1.44187721 10.01768213 1.44187721 10.01768213 -1.625 12.6875 C-3 14 -3 14 -6 14 C-5.75 12.1875 -5.75 12.1875 -5 10 C-4.34 9.566875 -3.68 9.13375 -3 8.6875 C-0.60758753 7.0229421 -0.60758753 7.0229421 -0.25 3.3125 C-0.1675 2.219375 -0.085 1.12625 0 0 Z " fill="#67299C" transform="translate(219,47)"/>
<path d="M0 0 C2.31 0 4.62 0 7 0 C7 0.66 7 1.32 7 2 C8.98 1.34 10.96 0.68 13 0 C13.68707555 2.49064888 14 4.37886292 14 7 C17.9706796 7.91983592 21.76162062 8.19088698 25.83203125 8.31640625 C27.12431641 8.35830078 28.41660156 8.40019531 29.74804688 8.44335938 C31.10286192 8.48316352 32.45767967 8.52287591 33.8125 8.5625 C35.18686105 8.60573723 36.56121024 8.64935312 37.93554688 8.69335938 C41.29026669 8.7992979 44.6450586 8.90137189 48 9 C47.505 6.525 47.505 6.525 47 4 C47.66 4.33 48.32 4.66 49 5 C49 5.66 49 6.32 49 7 C49.66 7 50.32 7 51 7 C51.495 8.98 51.495 8.98 52 11 C47.48343092 11.07490483 42.96720377 11.12895323 38.45019531 11.16479492 C36.91790457 11.17975744 35.38565571 11.20013497 33.85351562 11.22631836 C12.4324291 11.58287039 12.4324291 11.58287039 3.875 4.375 C3.12992188 3.76398438 2.38484375 3.15296875 1.6171875 2.5234375 C1.08351562 2.02070313 0.54984375 1.51796875 0 1 C0 0.67 0 0.34 0 0 Z " fill="#0F739D" transform="translate(205,215)"/>
<path d="M0 0 C17.16 0 34.32 0 52 0 C47.66465598 2.16767201 44.50259559 2.29537449 39.8046875 2.30859375 C38.18619404 2.33373578 36.56770454 2.35913404 34.94921875 2.38476562 C32.40349198 2.41359912 29.85783358 2.43762591 27.31201172 2.45629883 C24.85089226 2.47787096 22.39054286 2.51728076 19.9296875 2.55859375 C18.7828096 2.55876747 18.7828096 2.55876747 17.61276245 2.5589447 C15.24159646 2.56930957 15.24159646 2.56930957 12 3 C11.01 4.485 11.01 4.485 10 6 C9.67 5.01 9.34 4.02 9 3 C9 3.66 9 4.32 9 5 C9 5.99 9 6.98 9 8 C8.01 7.67 7.02 7.34 6 7 C6 6.34 6 5.68 6 5 C4.35 4.67 2.7 4.34 1 4 C0.67 2.68 0.34 1.36 0 0 Z " fill="#822EF1" transform="translate(127,118)"/>
<path d="M0 0 C3.55230779 1.1841026 4.24146766 2.29587186 6.4375 5.25 C7.0459375 6.06082031 7.654375 6.87164062 8.28125 7.70703125 C8.8484375 8.46371094 9.415625 9.22039062 10 10 C10.804375 10.969375 11.60875 11.93875 12.4375 12.9375 C14 15 14 15 14 17 C14.66 17 15.32 17 16 17 C19 20.46153846 19 20.46153846 19 23 C19.66 23 20.32 23 21 23 C21.33 23.99 21.66 24.98 22 26 C20.68 26 19.36 26 18 26 C18 25.34 18 24.68 18 24 C15.09399739 22.74335022 13.20395416 22 10 22 C9.67 19.69 9.34 17.38 9 15 C7.68 15.33 6.36 15.66 5 16 C5.66 14.35 6.32 12.7 7 11 C5.02 10.34 3.04 9.68 1 9 C0.67 6.03 0.34 3.06 0 0 Z " fill="#257CD6" transform="translate(194,149)"/>
<path d="M0 0 C0.99 0.33 1.98 0.66 3 1 C2.01 2.485 2.01 2.485 1 4 C0.34 4 -0.32 4 -1 4 C-1 4.66 -1 5.32 -1 6 C-1.66 6 -2.32 6 -3 6 C-3 6.66 -3 7.32 -3 8 C-9.67964383 13.76821579 -17.53216818 19.6162925 -26.5625 20.25 C-27.366875 20.1675 -28.17125 20.085 -29 20 C-29 19.01 -29 18.02 -29 17 C-25.49223216 15.39644899 -22.85645121 14.77963136 -19 15 C-19 14.34 -19 13.68 -19 13 C-17.02 12.67 -15.04 12.34 -13 12 C-13 11.01 -13 10.02 -13 9 C-12.34 8.67 -11.68 8.34 -11 8 C-10.67 7.01 -10.34 6.02 -10 5 C-9.21625 5.061875 -8.4325 5.12375 -7.625 5.1875 C-6.75875 5.125625 -5.8925 5.06375 -5 5 C-4.34 4.01 -3.68 3.02 -3 2 C-2.01 2 -1.02 2 0 2 C0 1.34 0 0.68 0 0 Z " fill="#4E41C3" transform="translate(224,130)"/>
<path d="M0 0 C11.45837312 0.57291866 20.85218296 5.27774051 30 12 C27 13 27 13 25.125 12.5 C22.93923417 11.82231412 22.93923417 11.82231412 20.5 12.5625 C17.56378776 13.07633714 16.47428604 12.5578838 14 11 C14.33 10.34 14.66 9.68 15 9 C14.60061233 6.90178785 14.60061233 6.90178785 14 5 C12.205625 5.0928125 12.205625 5.0928125 10.375 5.1875 C6.26502405 5.20943937 3.5521739 4.13130434 0 2 C0 1.34 0 0.68 0 0 Z " fill="#A73CCB" transform="translate(189,34)"/>
<path d="M0 0 C2.8125 0.3125 2.8125 0.3125 6 1 C6.94875 1.185625 7.8975 1.37125 8.875 1.5625 C9.57625 1.706875 10.2775 1.85125 11 2 C11 3.66666667 11 5.33333333 11 7 C11.639375 7.103125 12.27875 7.20625 12.9375 7.3125 C13.618125 7.539375 14.29875 7.76625 15 8 C16.09658936 11.28976808 15.79953138 12.71303767 15 16 C12.18990646 15.35769291 10.44170396 14.65320391 8.80078125 12.2265625 C8.41277344 11.53304687 8.02476562 10.83953125 7.625 10.125 C5.1121668 5.70947841 2.55316803 4.14266731 -2 2 C-1.34 1.34 -0.68 0.68 0 0 Z " fill="#8B38B6" transform="translate(190,70)"/>
<path d="M0 0 C0 3.63151113 -1.01440206 5.10282446 -2.875 8.1875 C-3.40867187 9.08855469 -3.94234375 9.98960937 -4.4921875 10.91796875 C-4.98976563 11.60503906 -5.48734375 12.29210937 -6 13 C-6.66 13 -7.32 13 -8 13 C-8 13.66 -8 14.32 -8 15 C-8.66 15 -9.32 15 -10 15 C-9.67 20.61 -9.34 26.22 -9 32 C-7.02 32.66 -5.04 33.32 -3 34 C-3 34.33 -3 34.66 -3 35 C-5.97 35 -8.94 35 -12 35 C-13.20217503 32.59564994 -13.03897118 31.31618631 -12.87890625 28.6484375 C-12.83056641 27.79765625 -12.78222656 26.946875 -12.73242188 26.0703125 C-12.67634766 25.18085938 -12.62027344 24.29140625 -12.5625 23.375 C-12.51029297 22.4778125 -12.45808594 21.580625 -12.40429688 20.65625 C-12.2744565 18.43715988 -12.13948661 16.21850129 -12 14 C-11.34 14 -10.68 14 -10 14 C-9.63261719 12.91138672 -9.63261719 12.91138672 -9.2578125 11.80078125 C-7.85948793 8.68712063 -6.18703779 6.68599245 -3.875 4.1875 C-3.15054688 3.39730469 -2.42609375 2.60710937 -1.6796875 1.79296875 C-1.12539062 1.20128906 -0.57109375 0.60960937 0 0 Z " fill="#126190" transform="translate(74,191)"/>
<path d="M0 0 C2.475 0.495 2.475 0.495 5 1 C5.66 2.98 6.32 4.96 7 7 C9.64 7.33 12.28 7.66 15 8 C14.525625 8.391875 14.05125 8.78375 13.5625 9.1875 C11.64820367 11.40808374 11.38733012 13.13375709 11 16 C11.99 16.33 12.98 16.66 14 17 C13.67 18.32 13.34 19.64 13 21 C11.4941255 19.21326795 9.9954515 17.42046492 8.5 15.625 C7.24703125 14.12839844 7.24703125 14.12839844 5.96875 12.6015625 C4 10 4 10 4 8 C3.34 8 2.68 8 2 8 C-0.1519437 4.77208445 -0.20086443 3.71599191 0 0 Z " fill="#3B6AEC" transform="translate(156,151)"/>
<path d="M0 0 C1.32 0 2.64 0 4 0 C4 0.66 4 1.32 4 2 C4.66 2 5.32 2 6 2 C6 2.66 6 3.32 6 4 C6.66 4 7.32 4 8 4 C10.29633824 7.44450737 10.54016485 9.93812283 11 14 C9.02 14.99 9.02 14.99 7 16 C7 15.01 7 14.02 7 13 C6.68911632 11.32900023 6.35919668 9.66128463 6 8 C4.576875 8.2784375 4.576875 8.2784375 3.125 8.5625 C0 9 0 9 -2 8 C-1.125 1.125 -1.125 1.125 0 0 Z " fill="#0C96E7" transform="translate(213,175)"/>
<path d="M0 0 C0.66 0 1.32 0 2 0 C2.33 0.66 2.66 1.32 3 2 C3.928125 2.1546875 3.928125 2.1546875 4.875 2.3125 C7 3 7 3 8.4375 5.4375 C10.29291963 8.4803882 11.65276481 9.00487602 15 10 C15.33 12.31 15.66 14.62 16 17 C16.66 17 17.32 17 18 17 C17.34 18.32 16.68 19.64 16 21 C11 15.25 11 15.25 11 13 C10.34 13 9.68 13 9 13 C5 8.52941176 5 8.52941176 5 6 C4.34 6 3.68 6 3 6 C2.01 4.02 1.02 2.04 0 0 Z " fill="#1279B1" transform="translate(172,174)"/>
<path d="M0 0 C2.25 0 2.25 0 5 1 C9.41034211 6.3966806 9.492165 12.32843004 9 19 C8.67 19 8.34 19 8 19 C8 17.35 8 15.7 8 14 C5.99967627 12.99983813 4.16874252 12.50603992 2 12 C1.855625 10.948125 1.71125 9.89625 1.5625 8.8125 C1.12473034 5.84539451 0.62195134 2.93205634 0 0 Z " fill="#832ACE" transform="translate(227,60)"/>
<path d="M0 0 C2.61530876 0.36073224 3.79749727 0.79749727 5.6875 2.6875 C7.25600896 5.4510634 7.64343804 7.86225474 8 11 C5.69 11 3.38 11 1 11 C0.01 8.36 -0.98 5.72 -2 3 C-1.34 3 -0.68 3 0 3 C0 2.01 0 1.02 0 0 Z M0 5 C1 7 1 7 1 7 Z " fill="#0A9ED9" transform="translate(245,213)"/>
<path d="M0 0 C0.66 0.33 1.32 0.66 2 1 C2.43127405 5.31274054 2.39417226 8.04200396 -0.3125 11.4375 C-3 14 -3 14 -6 14 C-6 14.66 -6 15.32 -6 16 C-6.66 16 -7.32 16 -8 16 C-7.8125 14.125 -7.8125 14.125 -7 12 C-4.4375 10.75 -4.4375 10.75 -2 10 C-2.226875 9.0925 -2.45375 8.185 -2.6875 7.25 C-3 4 -3 4 -1.5625 1.625 C-0.7890625 0.820625 -0.7890625 0.820625 0 0 Z " fill="#6039C6" transform="translate(230,116)"/>
<path d="M0 0 C17.16 0 34.32 0 52 0 C52 0.33 52 0.66 52 1 C51.39056549 1.00808685 50.78113098 1.01617371 50.15322876 1.02450562 C43.82687016 1.11036845 37.50083154 1.20986327 31.17480469 1.31738281 C28.81190349 1.35573527 26.44894266 1.39057692 24.0859375 1.421875 C20.6950952 1.46738966 17.30466576 1.52540619 13.9140625 1.5859375 C12.32182358 1.60326431 12.32182358 1.60326431 10.69741821 1.62094116 C9.22611954 1.6507457 9.22611954 1.6507457 7.72509766 1.68115234 C6.42603989 1.70113785 6.42603989 1.70113785 5.10073853 1.7215271 C2.78242358 1.81220713 2.78242358 1.81220713 1 4 C0.67 2.68 0.34 1.36 0 0 Z " fill="#8244D9" transform="translate(127,118)"/>
<path d="M0 0 C8.58 0 17.16 0 26 0 C26 0.66 26 1.32 26 2 C26.99 2.33 27.98 2.66 29 3 C27.0625 3.5625 27.0625 3.5625 25 4 C24.67 3.67 24.34 3.34 24 3 C23.01 3 22.02 3 21 3 C18.04774991 3 15.40538381 2.858198 12.5 2.5 C8.62818938 2.02847589 4.89778077 1.91706849 1 2 C0.67 1.34 0.34 0.68 0 0 Z " fill="#D070B1" transform="translate(163,34)"/>
<path d="M0 0 C3.57335247 1.19111749 4.41716762 2.43356308 6.6875 5.375 C7.31011719 6.16648438 7.93273437 6.95796875 8.57421875 7.7734375 C10 10 10 10 10 13 C6.70794116 12.04896078 3.79540368 11.00952605 1 9 C-0.09475905 5.97116662 -0.17078917 3.19717333 0 0 Z " fill="#2D60C2" transform="translate(194,149)"/>
<path d="M0 0 C0.60546875 1.87109375 0.60546875 1.87109375 1 4 C-0.85883824 6.2719134 -2.73815731 7.82793195 -5.1875 9.4375 C-7.5266085 11.45397285 -7.67504594 12.99417492 -8 16 C-9.65 16.33 -11.3 16.66 -13 17 C-9.69240426 10.38480852 -5.04893179 5.36179295 0 0 Z " fill="#2E7C9B" transform="translate(88,174)"/>
<path d="M0 0 C3.3 0 6.6 0 10 0 C10.33 1.32 10.66 2.64 11 4 C9.37681021 4.36237263 7.7513642 4.71465157 6.125 5.0625 C5.22007812 5.25972656 4.31515625 5.45695312 3.3828125 5.66015625 C1 6 1 6 -1 5 C-0.67 3.35 -0.34 1.7 0 0 Z " fill="#C65AB9" transform="translate(180,63)"/>
<path d="M0 0 C1.32 0.33 2.64 0.66 4 1 C4 1.66 4 2.32 4 3 C5.65 2.34 7.3 1.68 9 1 C6.525 4.465 6.525 4.465 4 8 C4.66 8 5.32 8 6 8 C6.33 9.32 6.66 10.64 7 12 C5.68 11.67 4.36 11.34 3 11 C2.87625 10.195625 2.7525 9.39125 2.625 8.5625 C2.315625 7.2940625 2.315625 7.2940625 2 6 C1.34 5.67 0.68 5.34 0 5 C0 3.35 0 1.7 0 0 Z " fill="#2E74E5" transform="translate(167,162)"/>
<path d="M0 0 C10.23 0 20.46 0 31 0 C27.6605237 2.22631753 26.66304265 2.23053226 22.78125 2.16015625 C21.76675781 2.14919922 20.75226563 2.13824219 19.70703125 2.12695312 C18.11955078 2.09504883 18.11955078 2.09504883 16.5 2.0625 C14.40631886 2.02807284 12.31256163 1.99793098 10.21875 1.97265625 C9.28998047 1.95468994 8.36121094 1.93672363 7.40429688 1.91821289 C4.853631 1.89112733 4.853631 1.89112733 2 3 C1.67 3.99 1.34 4.98 1 6 C0.67 4.02 0.34 2.04 0 0 Z " fill="#F3BE55" transform="translate(63,35)"/>
<path d="M0 0 C5.75616935 8.63425403 4.19285109 20.06816908 4 30 C3.67 30 3.34 30 3 30 C2.92652344 28.33710937 2.92652344 28.33710937 2.8515625 26.640625 C2.77650785 25.17705935 2.70096119 23.71351888 2.625 22.25 C2.5940625 21.52039063 2.563125 20.79078125 2.53125 20.0390625 C2.31925262 16.1524439 1.81969823 13.40459669 0 10 C-0.1953125 7.421875 -0.1953125 7.421875 -0.125 4.75 C-0.09792969 3.41195312 -0.09792969 3.41195312 -0.0703125 2.046875 C-0.04710937 1.37140625 -0.02390625 0.6959375 0 0 Z " fill="#512295" transform="translate(236,71)"/>
<path d="M0 0 C1.1446875 0.2475 1.1446875 0.2475 2.3125 0.5 C5.03596236 1.09145396 5.03596236 1.09145396 8 1 C8.144375 1.886875 8.28875 2.77375 8.4375 3.6875 C8.91019978 6.47117646 9.43070185 9.23483757 10 12 C8.29115995 10.37660195 6.62553283 8.70680947 5 7 C5 6.34 5 5.68 5 5 C4.34 5 3.68 5 3 5 C1.375 2.5 1.375 2.5 0 0 Z " fill="#483EBB" transform="translate(146,143)"/>
<path d="M0 0 C0.66 0 1.32 0 2 0 C0.65515286 4.04161955 -1.0505162 6.38678154 -4.125 9.3125 C-4.84945312 10.00988281 -5.57390625 10.70726562 -6.3203125 11.42578125 C-6.87460938 11.94527344 -7.42890625 12.46476563 -8 13 C-8.66 12.67 -9.32 12.34 -10 12 C-8.6875 9.5 -8.6875 9.5 -7 7 C-6.01 7 -5.02 7 -4 7 C-4 5.68 -4 4.36 -4 3 C-3.01 3 -2.02 3 -1 3 C-0.67 2.01 -0.34 1.02 0 0 Z " fill="#0C6E9D" transform="translate(92,208)"/>
<path d="M0 0 C0.99 0 1.98 0 3 0 C3.33 1.32 3.66 2.64 4 4 C2.90398831 5.00893131 1.79786082 6.00688225 0.6875 7 C-0.23482422 7.8353125 -0.23482422 7.8353125 -1.17578125 8.6875 C-3 10 -3 10 -6 10 C-5.61121002 7.18127263 -5.29189635 6.22804402 -3 4.4375 C-2.34 3.963125 -1.68 3.48875 -1 3 C-0.67 2.01 -0.34 1.02 0 0 Z " fill="#A531E4" transform="translate(219,51)"/>
<path d="M0 0 C0.66 0 1.32 0 2 0 C2.33 0.66 2.66 1.32 3 2 C3.95132813 2.18755859 3.95132813 2.18755859 4.921875 2.37890625 C7 3 7 3 8.265625 4.77734375 C8.59046875 5.49019531 8.9153125 6.20304688 9.25 6.9375 C9.58515625 7.64777344 9.9203125 8.35804688 10.265625 9.08984375 C11 11 11 11 11 13 C10.34 13 9.68 13 9 13 C5 8.52941176 5 8.52941176 5 6 C4.34 6 3.68 6 3 6 C2.01 4.02 1.02 2.04 0 0 Z " fill="#1C6EAF" transform="translate(172,174)"/>
<path d="M0 0 C0.99 0 1.98 0 3 0 C4.47421517 3.81561573 5.33945604 6.10340062 4 10 C3.65421232 11.99788438 3.31856451 13.99759451 3 16 C2.01 16.33 1.02 16.66 0 17 C0.08378906 16.35933594 0.16757813 15.71867187 0.25390625 15.05859375 C0.87664605 9.76924686 1.02317185 5.22954501 0 0 Z " fill="#782FB7" transform="translate(201,84)"/>
<path d="M0 0 C0.99 0.33 1.98 0.66 3 1 C2.01 2.485 2.01 2.485 1 4 C0.34 4 -0.32 4 -1 4 C-1 4.66 -1 5.32 -1 6 C-1.66 6 -2.32 6 -3 6 C-3 6.66 -3 7.32 -3 8 C-5.5 9.625 -5.5 9.625 -8 11 C-8 9.35 -8 7.7 -8 6 C-7.01 5.67 -6.02 5.34 -5 5 C-4.34 4.01 -3.68 3.02 -3 2 C-2.01 2 -1.02 2 0 2 C0 1.34 0 0.68 0 0 Z " fill="#563FC7" transform="translate(224,130)"/>
<path d="M0 0 C0.33 0.66 0.66 1.32 1 2 C3.02463255 2.65213292 3.02463255 2.65213292 5 3 C4.2575 3.680625 4.2575 3.680625 3.5 4.375 C1.77390663 5.87635519 1.77390663 5.87635519 2 8 C0.35 7.67 -1.3 7.34 -3 7 C-2.625 4.0625 -2.625 4.0625 -2 1 C-1.34 0.67 -0.68 0.34 0 0 Z " fill="#F3BE57" transform="translate(70,183)"/>
<path d="M0 0 C2.63746863 2.57516622 3.21887499 4.54331396 3.29296875 8.109375 C3.27313353 9.65652231 3.2375101 11.20353396 3.1875 12.75 C3.17396484 13.54277344 3.16042969 14.33554688 3.14648438 15.15234375 C3.11125223 17.10185564 3.05744821 19.05101626 3 21 C2.34 21.33 1.68 21.66 1 22 C0.67 19.36 0.34 16.72 0 14 C0.66 14 1.32 14 2 14 C1.2812193 6.95792295 1.2812193 6.95792295 0 0 Z " fill="#8C35EB" transform="translate(236,81)"/>
<path d="M0 0 C0.33 0.66 0.66 1.32 1 2 C1.66 2.144375 2.32 2.28875 3 2.4375 C3.66 2.623125 4.32 2.80875 5 3 C6.09658936 6.28976808 5.79953138 7.71303767 5 11 C3.046875 10.2890625 3.046875 10.2890625 1 9 C0.390625 6.8359375 0.390625 6.8359375 0.25 4.375 C0.19328125 3.55773437 0.1365625 2.74046875 0.078125 1.8984375 C0.05234375 1.27195312 0.0265625 0.64546875 0 0 Z " fill="#A536E7" transform="translate(200,75)"/>
<path d="M0 0 C5.27315333 0.4452885 10.01770224 1.08373163 15 3 C11.84804496 4.86782521 9.65318659 5.43490317 6 5 C2.6875 3.5 2.6875 3.5 0 2 C0 1.34 0 0.68 0 0 Z " fill="#9844A1" transform="translate(189,34)"/>
<path d="M0 0 C0 3.5867925 -0.94399164 5.05836205 -2.75 8.125 C-3.51570313 9.45917969 -3.51570313 9.45917969 -4.296875 10.8203125 C-6 13 -6 13 -8.203125 13.8046875 C-8.79609375 13.86914062 -9.3890625 13.93359375 -10 14 C-8.62815653 9.93501119 -6.77931541 7.32603439 -3.875 4.1875 C-3.15054688 3.39730469 -2.42609375 2.60710937 -1.6796875 1.79296875 C-1.12539062 1.20128906 -0.57109375 0.60960937 0 0 Z " fill="#317997" transform="translate(74,191)"/>
<path d="M0 0 C0.66 0 1.32 0 2 0 C5 3.46153846 5 3.46153846 5 6 C5.66 6 6.32 6 7 6 C7.33 6.99 7.66 7.98 8 9 C6.68 9 5.36 9 4 9 C4 8.34 4 7.68 4 7 C2.68 6.34 1.36 5.68 0 5 C0 3.35 0 1.7 0 0 Z " fill="#1C7CC1" transform="translate(208,166)"/>
<path d="M0 0 C0 2.64 0 5.28 0 8 C-0.66 8 -1.32 8 -2 8 C-2 7.34 -2 6.68 -2 6 C-3.32 5.67 -4.64 5.34 -6 5 C-5.67 3.68 -5.34 2.36 -5 1 C-1.125 0 -1.125 0 0 0 Z " fill="#0D99E5" transform="translate(195,191)"/>
<path d="M0 0 C0 0.33 0 0.66 0 1 C2.97 1.495 2.97 1.495 6 2 C6 2.33 6 2.66 6 3 C3.37472811 3.05382106 0.75055287 3.09358313 -1.875 3.125 C-2.62136719 3.14175781 -3.36773437 3.15851563 -4.13671875 3.17578125 C-6.09194461 3.1933959 -8.04742021 3.10320189 -10 3 C-10.66 2.34 -11.32 1.68 -12 1 C-7.93631321 0.22596442 -4.13574827 -0.0984702 0 0 Z " fill="#D376A8" transform="translate(173,65)"/>
<path d="M0 0 C-1.32 0.33 -2.64 0.66 -4 1 C-4 1.66 -4 2.32 -4 3 C-7.82989106 4.80230168 -10.78121808 5.19622241 -15 5 C-12.60485113 1.4072767 -11.56217254 1.29761292 -7.5 0.25 C-6.5203125 -0.01296875 -5.540625 -0.2759375 -4.53125 -0.546875 C-2 -1 -2 -1 0 0 Z " fill="#6931C5" transform="translate(190,115)"/>
<path d="M0 0 C0.99 0 1.98 0 3 0 C3 2.31 3 4.62 3 7 C2.34 6.67 1.68 6.34 1 6 C0.34 6.66 -0.32 7.32 -1 8 C-1.625 5.6875 -1.625 5.6875 -2 3 C-1.34 2.01 -0.68 1.02 0 0 Z " fill="#F5BC57" transform="translate(77,175)"/>
<path d="M0 0 C0.33 0.66 0.66 1.32 1 2 C3.01669827 3.13350534 3.01669827 3.13350534 5 4 C5 6.64 5 9.28 5 12 C4.67 12 4.34 12 4 12 C4 10.35 4 8.7 4 7 C1.99967627 5.99983813 0.16874252 5.50603992 -2 5 C-1.34 3.35 -0.68 1.7 0 0 Z " fill="#962FEE" transform="translate(231,67)"/>
<path d="M0 0 C0.66 0.33 1.32 0.66 2 1 C2 2.65 2 4.3 2 6 C0.35 6.66 -1.3 7.32 -3 8 C-2.25 2.25 -2.25 2.25 0 0 Z " fill="#7B38F8" transform="translate(230,116)"/>
<path d="M0 0 C4.0042343 3.49087093 5.62671065 5.64951939 6 11 C5.34 11 4.68 11 4 11 C3.67 10.01 3.34 9.02 3 8 C2.34 7.67 1.68 7.34 1 7 C0.59270772 4.67843403 0.25561323 2.3431213 0 0 Z " fill="#1283B4" transform="translate(223,183)"/>
<path d="M0 0 C0 2.33333333 0 4.66666667 0 7 C-0.66 7 -1.32 7 -2 7 C-2 6.34 -2 5.68 -2 5 C-3.32 4.67 -4.64 4.34 -6 4 C-5.67 3.01 -5.34 2.02 -5 1 C-3 0 -3 0 0 0 Z " fill="#02A5ED" transform="translate(219,215)"/>
<path d="M0 0 C0.66 0 1.32 0 2 0 C2.33 1.98 2.66 3.96 3 6 C1.02 6.99 1.02 6.99 -1 8 C-1 5.16032769 -0.59732819 2.76264289 0 0 Z " fill="#0A9EE7" transform="translate(221,183)"/>
<path d="M0 0 C1.98 0 3.96 0 6 0 C5.75 1.875 5.75 1.875 5 4 C2.9375 5.25 2.9375 5.25 1 6 C0.67 4.02 0.34 2.04 0 0 Z " fill="#F4B855" transform="translate(90,159)"/>
<path d="M0 0 C0 0.66 0 1.32 0 2 C-1.65 2 -3.3 2 -5 2 C-5 2.66 -5 3.32 -5 4 C-6.65 4.33 -8.3 4.66 -10 5 C-10 4.01 -10 3.02 -10 2 C-6.49223216 0.39644899 -3.85645121 -0.22036864 0 0 Z " fill="#5758E8" transform="translate(205,145)"/>
<path d="M0 0 C1.65 0 3.3 0 5 0 C5.33 1.32 5.66 2.64 6 4 C3.36 4 0.72 4 -2 4 C-1.34 2.68 -0.68 1.36 0 0 Z " fill="#C54FC2" transform="translate(185,63)"/>
<path d="M0 0 C2 1 4 2 6 3 C6 3.66 6 4.32 6 5 C5.34 5 4.68 5 4 5 C4 5.66 4 6.32 4 7 C3.01 6.67 2.02 6.34 1 6 C0.67 4.02 0.34 2.04 0 0 Z " fill="#1E82EB" transform="translate(173,170)"/>
<path d="M0 0 C0.99 0.33 1.98 0.66 3 1 C2.64950425 4.24208567 2.43778819 5.61527704 -0.0625 7.8125 C-0.701875 8.204375 -1.34125 8.59625 -2 9 C-2 7.68 -2 6.36 -2 5 C-1.34 5 -0.68 5 0 5 C0 3.35 0 1.7 0 0 Z " fill="#9131ED" transform="translate(204,95)"/>
<path d="M0 0 C1.37562854 1.28965176 2.70766393 2.62689293 4 4 C4 4.66 4 5.32 4 6 C4.66 6 5.32 6 6 6 C6 6.66 6 7.32 6 8 C3.625 7.8125 3.625 7.8125 1 7 C-0.375 4.5625 -0.375 4.5625 -1 2 C-0.67 1.34 -0.34 0.68 0 0 Z " fill="#1086B4" transform="translate(241,205)"/>
<path d="M0 0 C0.33 0.66 0.66 1.32 1 2 C1.66 2 2.32 2 3 2 C3 2.66 3 3.32 3 4 C3.66 4 4.32 4 5 4 C5.66 5.32 6.32 6.64 7 8 C6.01 8.33 5.02 8.66 4 9 C3.896875 8.360625 3.79375 7.72125 3.6875 7.0625 C3.460625 6.381875 3.23375 5.70125 3 5 C2.01 4.67 1.02 4.34 0 4 C0 2.68 0 1.36 0 0 Z " fill="#1775AE" transform="translate(216,175)"/>
<path d="M0 0 C2.475 0.495 2.475 0.495 5 1 C5.33 2.98 5.66 4.96 6 7 C4.02 6.01 2.04 5.02 0 4 C0 2.68 0 1.36 0 0 Z " fill="#4D58F4" transform="translate(156,151)"/>
<path d="M0 0 C4.46839215 -0.21278058 7.82262526 0.40861915 12 2 C12 2.33 12 2.66 12 3 C3.42857143 3.28571429 3.42857143 3.28571429 0 1 C0 0.67 0 0.34 0 0 Z " fill="#158DBD" transform="translate(216,222)"/>
<path d="M0 0 C2.97 0.495 2.97 0.495 6 1 C5.67 2.32 5.34 3.64 5 5 C3.35 4.67 1.7 4.34 0 4 C0 2.68 0 1.36 0 0 Z " fill="#06A3E8" transform="translate(205,211)"/>
<path d="M0 0 C0.99 0.33 1.98 0.66 3 1 C3 1.66 3 2.32 3 3 C4.65 3 6.3 3 8 3 C7.34 4.65 6.68 6.3 6 8 C1.125 3.375 1.125 3.375 0 0 Z " fill="#0F77A4" transform="translate(190,196)"/>
<path d="M0 0 C1.98 0.495 1.98 0.495 4 1 C3.67 2.32 3.34 3.64 3 5 C1.68 5 0.36 5 -1 5 C-0.67 3.35 -0.34 1.7 0 0 Z " fill="#EEBB5B" transform="translate(86,168)"/>
<path d="M0 0 C1.32 0 2.64 0 4 0 C4 1.32 4 2.64 4 4 C4.99 4.33 5.98 4.66 7 5 C6.67 6.32 6.34 7.64 6 9 C4.99406757 7.8803014 3.9954151 6.7540588 3 5.625 C2.443125 4.99851563 1.88625 4.37203125 1.3125 3.7265625 C0 2 0 2 0 0 Z " fill="#2753A3" transform="translate(163,163)"/>
<path d="M0 0 C2.64 0.33 5.28 0.66 8 1 C7.67 1.99 7.34 2.98 7 4 C4.36 3.67 1.72 3.34 -1 3 C-0.67 2.01 -0.34 1.02 0 0 Z " fill="#BA45D1" transform="translate(189,68)"/>
<path d="M0 0 C1.32 0.33 2.64 0.66 4 1 C3.6875 2.9375 3.6875 2.9375 3 5 C2.01 5.33 1.02 5.66 0 6 C0 4.02 0 2.04 0 0 Z " fill="#E7C263" transform="translate(63,196)"/>
<path d="M0 0 C0.5534764 2.07553648 1 3.84365964 1 6 C-0.98 6.33 -2.96 6.66 -5 7 C-5 6.34 -5 5.68 -5 5 C-4.34 5 -3.68 5 -3 5 C-2.5359375 4.0409375 -2.5359375 4.0409375 -2.0625 3.0625 C-1 1 -1 1 0 0 Z " fill="#297D98" transform="translate(94,167)"/>
<path d="M0 0 C3.65316671 1.24976756 4.78065836 1.67098753 7 5 C6.67 5.99 6.34 6.98 6 8 C5.34 6.68 4.68 5.36 4 4 C3.34 4 2.68 4 2 4 C1.34 2.68 0.68 1.36 0 0 Z " fill="#384DA7" transform="translate(156,155)"/>
<path d="M0 0 C1.98 0 3.96 0 6 0 C6 0.99 6 1.98 6 3 C3.69 3 1.38 3 -1 3 C-0.67 2.01 -0.34 1.02 0 0 Z " fill="#03A9ED" transform="translate(247,221)"/>
<path d="M0 0 C2.4375 0.75 2.4375 0.75 5 2 C5.8125 4.125 5.8125 4.125 6 6 C5.01 6.495 5.01 6.495 4 7 C0 2.25 0 2.25 0 0 Z " fill="#1281AC" transform="translate(200,208)"/>
<path d="M0 0 C2.475 0.495 2.475 0.495 5 1 C4.67 2.32 4.34 3.64 4 5 C3.01 5 2.02 5 1 5 C0.67 3.35 0.34 1.7 0 0 Z " fill="#1393E3" transform="translate(182,183)"/>
<path d="M0 0 C0.66 0 1.32 0 2 0 C2.99 1.98 3.98 3.96 5 6 C3.35 5.67 1.7 5.34 0 5 C-0.5625 3.0625 -0.5625 3.0625 -1 1 C-0.67 0.67 -0.34 0.34 0 0 Z " fill="#5F3ECF" transform="translate(145,138)"/>
<path d="M0 0 C0.66 0.33 1.32 0.66 2 1 C1.25 6.75 1.25 6.75 -1 9 C-1.125 2.25 -1.125 2.25 0 0 Z " fill="#6738C6" transform="translate(233,113)"/>
<path d="M0 0 C1.9375 0.6875 1.9375 0.6875 4 2 C4.75 4.625 4.75 4.625 5 7 C4.34 7 3.68 7 3 7 C3 6.01 3 5.02 3 4 C2.01 4 1.02 4 0 4 C0 2.68 0 1.36 0 0 Z " fill="#7C2DB6" transform="translate(219,47)"/>
<path d="M0 0 C1.32 0.33 2.64 0.66 4 1 C4 2.98 4 4.96 4 7 C3.34 5.68 2.68 4.36 2 3 C1.34 3 0.68 3 0 3 C0 2.01 0 1.02 0 0 Z " fill="#0B9DD6" transform="translate(231,196)"/>
<path d="M0 0 C0.99 0 1.98 0 3 0 C3.33 1.32 3.66 2.64 4 4 C3.01 4.66 2.02 5.32 1 6 C0 3 0 3 0 0 Z " fill="#1788EB" transform="translate(204,166)"/>
<path d="M0 0 C0.99 0.33 1.98 0.66 3 1 C2.01 2.485 2.01 2.485 1 4 C0.34 4 -0.32 4 -1 4 C-1 4.66 -1 5.32 -1 6 C-1.66 6 -2.32 6 -3 6 C-3 4.68 -3 3.36 -3 2 C-2.01 2 -1.02 2 0 2 C0 1.34 0 0.68 0 0 Z " fill="#5038A8" transform="translate(224,130)"/>
<path d="M0 0 C2.88575819 0.39803561 3.82189513 0.79009069 5.75 3.0625 C6.1625 3.701875 6.575 4.34125 7 5 C6.34 5.66 5.68 6.32 5 7 C0 1.125 0 1.125 0 0 Z " fill="#5428A4" transform="translate(129,122)"/>
<path d="M0 0 C3.96 0 7.92 0 12 0 C12 0.33 12 0.66 12 1 C11.37351563 1.04898438 10.74703125 1.09796875 10.1015625 1.1484375 C9.28429687 1.22320312 8.46703125 1.29796875 7.625 1.375 C6.81289062 1.44460937 6.00078125 1.51421875 5.1640625 1.5859375 C2.79665809 1.82892588 2.79665809 1.82892588 1 4 C0.67 2.68 0.34 1.36 0 0 Z " fill="#743CC0" transform="translate(127,118)"/>
<path d="M0 0 C-0.33 1.65 -0.66 3.3 -1 5 C-2.65 4.67 -4.3 4.34 -6 4 C-6 3.34 -6 2.68 -6 2 C-2.25 0 -2.25 0 0 0 Z " fill="#8234F3" transform="translate(192,114)"/>
<path d="M0 0 C0.99 0 1.98 0 3 0 C3 0.99 3 1.98 3 3 C5.31 3 7.62 3 10 3 C10 3.33 10 3.66 10 4 C7.36 4.33 4.72 4.66 2 5 C1.34 3.35 0.68 1.7 0 0 Z " fill="#F0B659" transform="translate(96,63)"/>
<path d="M0 0 C3.77545388 1.09068668 6.47043472 1.9083091 9 5 C7.35 4.67 5.7 4.34 4 4 C4 3.34 4 2.68 4 2 C3.01 2.33 2.02 2.66 1 3 C0.67 2.01 0.34 1.02 0 0 Z " fill="#7C319B" transform="translate(204,38)"/>
</svg>
